<?xml version="1.0" encoding="UTF-8" standalone="no"?>
<svg width="280px" height="281px" viewBox="0 0 280 281" version="1.1" xmlns="http://www.w3.org/2000/svg" xmlns:xlink="http://www.w3.org/1999/xlink">
    <!-- Generator: Sketch 3.7.2 (28276) - http://www.bohemiancoding.com/sketch -->
    <title>rwr-vip-svg copy 12</title>
    <desc>Created with Sketch.</desc>
    <defs>
        <rect id="path-1" x="0" y="0" width="254.4" height="255.363636" rx="40"></rect>
        <mask id="mask-3" maskContentUnits="userSpaceOnUse" maskUnits="objectBoundingBox" x="-12.5" y="-12.5" width="279.4" height="280.363636">
            <rect x="-12.5" y="-12.5" width="279.4" height="280.363636" fill="white"></rect>
            <use xlink:href="#path-1" fill="black"></use>
        </mask>
    </defs>
    <g id="Page-1" stroke="none" stroke-width="1" fill="none" fill-rule="evenodd">
        <g id="Artboard-11" transform="translate(-5261.000000, -4348.000000)">
            <g id="rwr-vip-svg-copy-12" transform="translate(5274.000000, 4361.000000)">
                <g id="rwr-logo-vector">
                    <mask id="mask-2" fill="white">
                        <use xlink:href="#path-1"></use>
                    </mask>
                    <g id="Rectangle-18">
                        <use fill="#222222" fill-rule="evenodd" xlink:href="#path-1"></use>
                        <use stroke="#00D8FF" mask="url(#mask-3)" stroke-width="25" xlink:href="#path-1"></use>
                    </g>
                    <text id="P" mask="url(#mask-2)" transform="translate(205.500000, 108.000000) rotate(4.000000) translate(-205.500000, -108.000000) " font-family="PhillySans-Regular, Philly Sans" font-size="220" font-weight="normal" letter-spacing="4.2031579" fill="#00D8FF">
                        <tspan x="149" y="185">P</tspan>
                    </text>
                    <text id="V" mask="url(#mask-2)" font-family="PhillySans-Regular, Philly Sans" font-size="190" font-weight="normal" letter-spacing="3.63000011" fill="#00D8FF">
                        <tspan x="15" y="178">V</tspan>
                    </text>
                    <text id="I" mask="url(#mask-2)" transform="translate(126.334295, 124.433704) rotate(6.000000) translate(-126.334295, -124.433704) " font-family="PhillySans-Regular, Philly Sans" font-size="190" font-weight="normal" letter-spacing="3.63000011" fill="#00D8FF">
                        <tspan x="101.834295" y="190.933704">I</tspan>
                    </text>
                    <g id="react-logo-official" mask="url(#mask-2)">
                        <g transform="translate(102.000000, 58.000000)">
                            <ellipse id="Oval" stroke="none" fill="#00D8FF" fill-rule="evenodd" cx="16.8532662" cy="15.1179144" rx="3.11851092" ry="3.1221395"></ellipse>
                            <path d="M16.8532662,8.76995206 C21.04029,8.76995206 24.9299279,9.37145261 27.862697,10.3822723 C31.3962676,11.6001475 33.5688503,13.4462843 33.5688503,15.1179144 C33.5688503,16.8599322 31.2662856,18.8210792 27.4717565,20.0797806 C24.6028905,21.0314148 20.8278804,21.5281117 16.8532662,21.5281117 C12.7782595,21.5281117 8.91945421,21.0618477 6.01894751,20.0692629 C2.34849491,18.8132376 0.137682203,16.8266365 0.137682203,15.1179144 C0.137682203,13.4598516 2.21204801,11.6280288 5.69595066,10.4119583 C8.63966036,9.38452194 12.6253395,8.76995206 16.8532662,8.76995206 L16.8532662,8.76995206 Z" id="Shape" stroke="#00D8FF" stroke-width="1.75" fill="none"></path>
                            <path d="M11.3336629,11.9622303 C13.4253721,8.33094689 15.8890001,5.25803522 18.228738,3.21946801 C21.0478117,0.763304444 23.7305628,-0.198660797 25.1769621,0.636407431 C26.6842807,1.50663839 27.2309386,4.4833971 26.4243789,8.40307717 C25.8145638,11.3665798 24.3584672,14.8887032 22.3728696,18.3358335 C20.3371067,21.8700304 18.0059473,24.983706 15.6980366,27.003416 C12.7775757,29.5592799 9.95421277,30.4841531 8.47567544,29.6305389 C7.0410249,28.8021921 6.49231567,26.0880647 7.18057993,22.4590218 C7.76211101,19.392707 9.22150226,15.6290499 11.3336629,11.9622303 L11.3336629,11.9622303 Z" id="Shape" stroke="#00D8FF" stroke-width="1.75" fill="none"></path>
                            <path d="M11.3389467,18.3450443 C9.2412078,14.717246 7.81240055,11.0456966 7.21682072,7.99817675 C6.49921572,4.32637839 7.00658682,1.51896091 8.45161851,0.681465517 C9.95744522,-0.191317075 12.8064191,0.82112069 15.7955075,3.47830306 C18.0554908,5.48724645 20.3761448,8.50918772 22.3675236,11.9530195 C24.4091919,15.4837936 25.9394485,19.0608081 26.5346553,22.0712982 C27.2878795,25.8808847 26.6781888,28.7916743 25.2010812,29.647778 C23.7677982,30.4784898 21.145034,29.5989858 18.3483388,27.1895607 C15.9853521,25.153794 13.4572615,22.0083164 11.3389467,18.3450443 L11.3389467,18.3450443 Z" id="Shape" stroke="#00D8FF" stroke-width="1.75" fill="none"></path>
                        </g>
                    </g>
                </g>
            </g>
        </g>
    </g>
</svg>