<?xml version="1.0" encoding="UTF-8" standalone="no"?>
<svg width="280px" height="281px" viewBox="0 0 280 281" version="1.1" xmlns="http://www.w3.org/2000/svg" xmlns:xlink="http://www.w3.org/1999/xlink">
    <!-- Generator: Sketch 3.7.2 (28276) - http://www.bohemiancoding.com/sketch -->
    <title>rwr-vip-svg copy 16</title>
    <desc>Created with Sketch.</desc>
    <defs>
        <rect id="path-1" x="0" y="0" width="254.4" height="255.363636" rx="40"></rect>
        <mask id="mask-3" maskContentUnits="userSpaceOnUse" maskUnits="objectBoundingBox" x="-12.5" y="-12.5" width="279.4" height="280.363636">
            <rect x="-12.5" y="-12.5" width="279.4" height="280.363636" fill="white"></rect>
            <use xlink:href="#path-1" fill="black"></use>
        </mask>
        <rect id="path-4" x="0" y="0" width="67" height="67" rx="10.56"></rect>
    </defs>
    <g id="Page-1" stroke="none" stroke-width="1" fill="none" fill-rule="evenodd">
        <g id="Artboard-11" transform="translate(-5929.000000, -5026.000000)">
            <g id="rwr-vip-svg-copy-16" transform="translate(5942.000000, 5039.000000)">
                <g id="rwr-logo-vector">
                    <mask id="mask-2" fill="white">
                        <use xlink:href="#path-1"></use>
                    </mask>
                    <g id="Rectangle-18">
                        <use fill="#222222" fill-rule="evenodd" xlink:href="#path-1"></use>
                        <use stroke="#00D8FF" mask="url(#mask-3)" stroke-width="25" xlink:href="#path-1"></use>
                    </g>
                    <g id="vip+shadow" mask="url(#mask-2)">
                        <g transform="translate(-46.000000, -57.000000)">
                            <text id="P" transform="translate(253.500000, 136.000000) rotate(4.000000) translate(-253.500000, -136.000000) " font-family="PhillySans-Regular, Philly Sans" font-size="220" font-weight="normal" letter-spacing="4.2031579">
                                <tspan x="197" y="213" fill="#00D8FF">P</tspan>
                            </text>
                            <text id="V" font-family="PhillySans-Regular, Philly Sans" font-size="190" font-weight="normal" letter-spacing="3.63000011">
                                <tspan x="63" y="206" fill="#00D8FF">V</tspan>
                            </text>
                            <text id="I" transform="translate(174.334295, 152.433704) rotate(6.000000) translate(-174.334295, -152.433704) " font-family="PhillySans-Regular, Philly Sans" font-size="190" font-weight="normal" letter-spacing="3.63000011">
                                <tspan x="149.834295" y="218.933704" fill="#00D8FF">I</tspan>
                            </text>
                            <g id="react-logo-official" stroke-width="1" fill-rule="evenodd" transform="translate(150.000000, 86.000000)">
                                <ellipse id="Oval" fill="#00D8FF" cx="16.8532662" cy="15.1179144" rx="3.11851092" ry="3.1221395"></ellipse>
                                <path d="M16.8532662,8.76995206 C21.04029,8.76995206 24.9299279,9.37145261 27.862697,10.3822723 C31.3962676,11.6001475 33.5688503,13.4462843 33.5688503,15.1179144 C33.5688503,16.8599322 31.2662856,18.8210792 27.4717565,20.0797806 C24.6028905,21.0314148 20.8278804,21.5281117 16.8532662,21.5281117 C12.7782595,21.5281117 8.91945421,21.0618477 6.01894751,20.0692629 C2.34849491,18.8132376 0.137682203,16.8266365 0.137682203,15.1179144 C0.137682203,13.4598516 2.21204801,11.6280288 5.69595066,10.4119583 C8.63966036,9.38452194 12.6253395,8.76995206 16.8532662,8.76995206 L16.8532662,8.76995206 Z" id="Shape" stroke="#00D8FF" stroke-width="1.75"></path>
                                <path d="M11.3336629,11.9622303 C13.4253721,8.33094689 15.8890001,5.25803522 18.228738,3.21946801 C21.0478117,0.763304444 23.7305628,-0.198660797 25.1769621,0.636407431 C26.6842807,1.50663839 27.2309386,4.4833971 26.4243789,8.40307717 C25.8145638,11.3665798 24.3584672,14.8887032 22.3728696,18.3358335 C20.3371067,21.8700304 18.0059473,24.983706 15.6980366,27.003416 C12.7775757,29.5592799 9.95421277,30.4841531 8.47567544,29.6305389 C7.0410249,28.8021921 6.49231567,26.0880647 7.18057993,22.4590218 C7.76211101,19.392707 9.22150226,15.6290499 11.3336629,11.9622303 L11.3336629,11.9622303 Z" id="Shape" stroke="#00D8FF" stroke-width="1.75"></path>
                                <path d="M11.3389467,18.3450443 C9.2412078,14.717246 7.81240055,11.0456966 7.21682072,7.99817675 C6.49921572,4.32637839 7.00658682,1.51896091 8.45161851,0.681465517 C9.95744522,-0.191317075 12.8064191,0.82112069 15.7955075,3.47830306 C18.0554908,5.48724645 20.3761448,8.50918772 22.3675236,11.9530195 C24.4091919,15.4837936 25.9394485,19.0608081 26.5346553,22.0712982 C27.2878795,25.8808847 26.6781888,28.7916743 25.2010812,29.647778 C23.7677982,30.4784898 21.145034,29.5989858 18.3483388,27.1895607 C15.9853521,25.153794 13.4572615,22.0083164 11.3389467,18.3450443 L11.3389467,18.3450443 Z" id="Shape" stroke="#00D8FF" stroke-width="1.75"></path>
                            </g>
                        </g>
                    </g>
                </g>
                <g id="rwr-rounded-logo-copy" transform="translate(176.000000, 177.000000)">
                    <mask id="mask-5" fill="white">
                        <use xlink:href="#path-4"></use>
                    </mask>
                    <use id="Rectangle-38" fill="#222222" xlink:href="#path-4"></use>
                    <g id="rwr-logo-vector" mask="url(#mask-5)">
                        <rect id="Rectangle-18" fill="#222222" x="0" y="0" width="66.8423529" height="67.0955437"></rect>
                        <path d="M15.0463182,22.0997241 C15.1015634,22.1733242 15.1291856,22.2561231 15.1291856,22.3481233 C15.1291856,22.771324 14.6872307,23.0933198 13.8033076,23.3141202 C12.8273091,22.5597188 11.6119331,21.4005341 10.157143,19.8365313 C8.53661725,18.0885282 7.33044859,16.8741443 6.53860081,16.193343 C6.48335561,16.6717439 6.38207427,17.9229274 6.23475376,19.946931 C6.14267843,21.4741337 5.97694533,22.6885177 5.73754949,23.5901193 C5.70071936,23.5901193 5.58562693,23.6361187 5.39226875,23.7281189 C5.19891057,23.820119 5.03778117,23.8477187 4.90887572,23.8109186 C4.09861286,23.6269183 3.69348751,23.0657257 3.69348751,22.127324 C3.69348751,21.8513235 3.73031709,21.4833284 3.80397735,21.0233275 C3.87763761,20.4897266 3.92367458,20.158531 3.94208965,20.0297307 C4.0157499,18.9625288 4.06178688,17.6929456 4.08020194,16.220943 L4.08020194,13.2125526 C4.08020194,10.7101481 4.21831286,8.60337597 4.49453883,6.89217291 C4.67868948,5.75137087 5.75595461,5.2269778 7.72636655,5.31897797 C8.72078005,5.35577803 9.58627512,5.85257147 10.3228777,6.80937318 C11.0042351,7.69257476 11.3449087,8.64936212 11.3449087,9.67976396 C11.3449087,10.5445655 11.0226499,11.4093541 10.3781226,12.2741556 C9.82567068,13.046957 9.1443235,13.654149 8.33406065,14.0957498 C8.00258948,14.2797501 7.83685639,14.4821474 7.83685639,14.7029478 C7.83685639,14.9421483 8.03021167,15.2273445 8.41692803,15.5585451 C8.71156907,15.7977455 9.00620568,16.0369424 9.30084672,16.2761428 C9.31926179,16.2945428 10.3320752,17.2145307 12.3393172,19.0361339 C13.6099567,20.176936 14.5122813,21.1981225 15.0463182,22.0997241 L15.0463182,22.0997241 Z M9.21797934,9.70736387 C9.27322454,9.37616328 9.29163933,9.08176717 9.27322426,8.82416671 C9.21797907,8.43776602 9.05684967,8.08817064 8.78983123,7.77537008 C8.52281279,7.46256952 8.09466895,7.30617158 7.50538688,7.30617158 C7.06342532,7.30617158 6.78720349,7.44416976 6.6767131,7.72017026 C6.58463778,8.18017108 6.53860081,8.70456415 6.53860081,9.2933652 C6.53860081,9.53256563 6.56622299,10.1489575 6.62146818,11.1425593 C6.65829831,11.8969606 6.65829831,12.5133525 6.62146818,12.9917533 C8.14991857,11.8509513 9.01541363,10.7561657 9.21797934,9.70736387 L9.21797934,9.70736387 Z M23.422829,8.10656901 C22.7414716,8.38256951 21.7378656,8.70456525 20.4119809,9.07256591 C19.0860962,9.44056657 18.0824903,9.76256232 17.4011329,10.0385628 C17.2353973,10.5169637 17.1157012,11.5841496 17.0420409,13.2401525 C17.3366819,13.3505527 17.6773555,13.405752 18.0640719,13.405752 C18.3402979,13.405752 18.7730454,13.3597526 19.3623275,13.2677524 C19.9516095,13.1757523 20.3843571,13.1297529 20.660583,13.1297529 C21.1762049,13.1297529 21.6181598,13.2401514 21.9864611,13.4609518 C22.244272,13.8289525 22.3731755,14.0681493 22.3731755,14.1785495 C22.3731755,14.3073497 22.3087238,14.4085484 22.1798183,14.4821485 C22.1429882,14.5005486 22.0140847,14.6293469 21.7931039,14.8685473 C21.6457834,15.0341476 21.4616355,15.1077466 21.2406547,15.0893466 C20.8539383,15.1813468 20.144969,15.236546 19.1137253,15.2549461 C18.2482173,15.2733461 17.5576627,15.3837446 17.0420409,15.586145 C16.6921547,16.9477474 16.5172142,18.0241332 16.5172142,18.8153346 C16.5172142,19.3489356 16.5908733,19.77213 16.7381938,20.0849305 C17.6037019,20.6921316 19.1045072,20.9497282 21.2406547,20.8577281 C21.3879752,20.8577281 21.5445009,20.788729 21.7102365,20.6507287 C21.8759721,20.5127285 22.014083,20.4437294 22.1245734,20.4437294 C22.6401952,20.3333292 22.9808688,20.7197241 23.1466044,21.6029257 C23.2018496,21.8973262 23.1512089,22.1687226 22.9946808,22.4171231 C22.8381528,22.6655235 22.6125716,22.7989217 22.3179306,22.8173218 C20.0897078,22.8909219 18.1561549,22.7161242 16.5172142,22.2929235 C16.0015924,22.1641232 15.5320153,21.878927 15.1084688,21.4373262 C14.6849223,20.9957254 14.44553,20.498932 14.3902848,19.946931 C14.2245492,18.3461281 14.2245492,16.9109471 14.3902848,15.6413448 C13.874663,15.2917442 13.6444781,14.9513487 13.6997233,14.6201481 C13.7181384,14.4545478 13.860853,14.3027498 14.1278715,14.1647496 C14.3948899,14.0267493 14.5468119,13.8841512 14.583642,13.7369509 C14.6204722,13.5897507 14.6941313,12.7157622 14.8046217,11.1149594 C13.7733781,10.912559 13.2669714,10.5261641 13.2853865,9.95576308 C13.3038015,9.42216212 13.6260603,8.99896771 14.2521725,8.68616715 C14.8414546,8.44696673 15.4307278,8.20776989 16.0200099,7.96856946 C16.7197824,7.61896883 17.5852774,7.30617296 18.6165211,7.03017247 C19.5004442,6.79097204 20.3935614,6.56097508 21.2958996,6.34017469 C21.3879749,6.32177465 21.4984637,6.31257478 21.6273691,6.31257478 C22.1245759,6.31257478 22.7046417,6.50577222 23.367584,6.89217291 C23.3859991,6.96577305 23.4320361,7.10377122 23.5056963,7.30617158 C23.5793566,7.50857195 23.6161862,7.65577 23.6161862,7.74777017 C23.6161862,7.89497043 23.5517344,8.01456885 23.422829,8.10656901 L23.422829,8.10656901 Z M34.285361,20.581729 C34.3958514,20.8761295 34.4510958,21.1337261 34.4510958,21.3545265 C34.4510958,21.7225271 34.2945701,22.0445229 33.981514,22.3205234 C33.6684579,22.5965239 33.4566878,22.7253222 33.3461974,22.7069221 C32.4438592,22.5413218 31.8730008,21.8145314 31.6336049,20.5265291 C31.375794,19.1281266 31.07195,17.9597421 30.7220638,17.0213404 C30.0959516,17.0765405 29.4698488,17.1317398 28.8437366,17.1869399 C28.125549,17.27894 27.563898,17.4997371 27.1587666,17.8493377 C26.9562009,18.4197387 26.6891864,19.4317254 26.3577153,20.885328 C26.0446591,22.2285304 25.7408151,23.2497169 25.4461741,23.9489181 C25.2988536,24.2801187 24.9858022,24.3721175 24.5070105,24.2249173 C23.8993133,24.0225169 23.5770545,23.7465205 23.5402244,23.3969199 C23.4849792,22.6977187 23.6875419,21.7593311 24.1479185,20.581729 C24.7003705,19.2385266 25.0042145,18.2817392 25.0594597,17.7113382 C25.0778747,17.5457379 24.9581786,17.3617403 24.7003677,17.1593399 C24.4425568,16.9569396 24.3136533,16.8005416 24.3136533,16.6901415 C24.3136533,16.5981413 24.3550865,16.5015426 24.4379543,16.4003424 C24.5208221,16.2991422 24.7141774,16.2163433 25.018026,16.1519432 C25.3218746,16.0875431 25.4922113,15.9909443 25.5290415,15.8621441 C25.8605126,14.9421425 26.3853341,13.2309651 27.1035216,10.7285606 C27.7112188,8.55735671 28.2544551,6.89217871 28.7332467,5.73297664 C28.8437371,5.47537618 29.073922,5.34657788 29.4238082,5.34657788 C29.6816191,5.34657788 29.911804,5.42937678 30.1143697,5.59497708 C30.6299915,6.03657787 30.9614577,6.69896912 31.1087782,7.5821707 C31.2192686,8.33657205 31.32055,9.09096208 31.4126253,9.84536343 C32.3333785,14.1877712 33.2909475,17.7665239 34.285361,20.581729 L34.285361,20.581729 Z M30.252482,15.3101459 C30.1972368,14.6293447 30.0775407,13.8657548 29.89339,13.0193532 C29.7092394,12.2833519 29.5342989,11.5473616 29.3685633,10.8113603 C28.8161114,12.3385631 28.3373268,13.8657429 27.9321954,15.3929456 C28.2268365,15.3377455 29.0002576,15.3101459 30.252482,15.3101459 L30.252482,15.3101459 Z M43.5734129,18.704935 C43.5365828,18.723335 42.4593177,19.4869249 40.3415852,20.9957276 C39.1077759,21.8789292 38.0120959,22.5321206 37.0545126,22.9553213 C36.9440222,23.0105214 36.8335334,23.0381211 36.723043,23.0381211 C36.4652321,23.0381211 36.2258399,22.8725233 36.0048591,22.5413227 C35.6733879,22.0997219 35.4984475,21.8697249 35.4800324,21.8513249 C35.4432023,20.232122 35.5444836,17.9781518 35.7838794,15.0893466 C36.0601054,12.0165411 36.1982163,9.79937039 36.1982163,8.43776795 C36.1982163,7.49936627 36.1613867,6.61617794 36.0877265,5.78817646 C36.3271223,5.54897603 36.6309663,5.42937761 36.9992676,5.42937761 C37.6990401,5.42937761 38.1041655,5.68697421 38.2146558,6.20217513 C38.269901,7.71097783 38.2054493,9.96954799 38.0212986,12.9779534 C37.837148,15.9863588 37.7634888,18.2449289 37.800319,19.7537316 C38.3159408,19.5329312 38.9880806,19.1465363 39.8167585,18.5945353 C40.7190967,17.9689342 41.3728216,17.5549397 41.7779531,17.3525393 C41.8700284,17.3525393 42.0311578,17.3341396 42.2613461,17.2973395 C42.4915344,17.2605394 42.6618712,17.2421397 42.7723616,17.2421397 C43.1406629,17.2421397 43.4076773,17.3893377 43.5734129,17.6837383 C43.7943937,18.088539 43.7943937,18.4289345 43.5734129,18.704935 L43.5734129,18.704935 Z" id="Real" fill="#FFFFFF" transform="translate(23.716318, 14.800768) rotate(-9.000000) translate(-23.716318, -14.800768) "></path>
                        <path d="M15.893295,25.6594324 C16.3168415,25.8618327 16.5286116,26.1562288 16.5286116,26.5426295 C16.5286116,26.80023 16.4181228,27.1498254 16.1971421,27.5914262 C15.9209161,28.1802272 15.7735978,28.5114228 15.7551827,28.585023 C15.3132212,29.9466254 14.8942847,32.016598 14.4983608,34.795003 C14.1024369,37.573408 13.7019153,39.615781 13.2967839,40.9221833 C13.1862935,41.290184 12.8732421,41.4741816 12.3576202,41.4741816 C12.1182244,41.4741816 11.9064543,41.4281822 11.7223037,41.336182 C11.0409463,40.9865814 10.5529544,40.3057904 10.2583133,39.2937886 C10.2398983,39.2017884 10.0649578,38.2818006 9.73348662,36.5337974 C9.56775104,35.6137958 9.41122534,34.6294088 9.26390482,33.5806069 C9.00609391,34.0958078 8.66542032,35.3745909 8.24187383,37.4169946 C7.87357253,39.1833978 7.440825,40.3057829 6.94361825,40.7841838 C6.79629773,40.9313841 6.53849069,40.9497838 6.17018939,40.8393836 C5.61773745,40.7657835 5.24944168,40.4345879 5.06529103,39.8457868 C4.95480064,39.3305859 4.84431191,38.8153927 4.73382152,38.3001918 C4.40235035,36.9753894 4.13993961,34.9146166 3.94658143,32.1178116 C3.75322325,29.3210066 3.49081251,27.2786336 3.15934135,25.9906313 C3.10409615,25.7698309 3.13171833,25.5582337 3.24220872,25.3558333 C3.35269911,25.153433 3.50922482,25.0430344 3.71179053,25.0246344 C3.85911105,24.9878343 4.00642936,24.9694346 4.15374988,24.9694346 C4.66937169,24.9694346 5.06528965,25.1994315 5.34151562,25.6594324 C5.63615666,27.2050351 5.98603764,30.2133954 6.39116907,34.6846034 C6.53848959,34.3718028 6.70882638,33.7876105 6.90218456,32.932009 C7.09554274,32.0764075 7.28429433,31.4554157 7.46844497,31.069015 C7.63418056,30.3698137 7.79070626,29.670623 7.93802678,28.9714217 C8.15900756,28.1250202 8.61937727,27.7018258 9.31914974,27.7018258 C9.50330039,27.7018258 9.70586306,27.7294254 9.92684384,27.7846255 C9.9452589,27.8950257 10.0281255,27.9594249 10.175446,27.9778249 C10.3227665,27.9962249 10.405633,28.0238246 10.4240481,28.0606246 C10.8291795,28.9622263 11.1330235,30.1674103 11.3355893,31.676213 C11.6486454,33.8106169 11.8420006,35.0434006 11.9156609,35.3746012 C12.2103019,33.7369982 12.5141459,32.1086197 12.8272021,30.4894168 C13.2139184,28.5942135 13.7111177,27.0486339 14.3188148,25.8526317 C14.4477203,25.6134313 14.7147347,25.4938329 15.1198662,25.4938329 C15.4145072,25.4938329 15.6723142,25.5490322 15.893295,25.6594324 L15.893295,25.6594324 Z M27.4187661,33.9118059 C26.3322773,36.3590102 24.7946424,37.812591 22.8058154,38.2725919 C22.5664196,38.327792 22.3270273,38.3553916 22.0876315,38.3553916 C21.0379728,38.3553916 19.9791224,37.7849991 18.9110487,36.6441971 C18.1928612,35.8713957 17.8337728,34.8686089 17.8337728,33.6358067 C17.8337728,32.2742043 18.2388981,30.8114236 19.049161,29.2474208 C19.3990472,28.5850196 19.8225873,28.0146272 20.3197941,27.5362263 C20.8906611,26.9658253 21.4338974,26.6806291 21.9495192,26.6806291 C22.2441602,26.6806291 22.5203821,26.7910276 22.778193,27.011828 C23.0360039,27.2326284 23.7265584,27.5270245 24.8498774,27.8950252 C25.7338005,28.1894257 26.3599033,28.6862191 26.7282046,29.3854204 C27.3727319,30.6182226 27.6949907,31.6762086 27.6949907,32.5594102 C27.6949907,33.0562111 27.6029167,33.5070051 27.4187661,33.9118059 L27.4187661,33.9118059 Z M39.9047202,40.9162191 C39.6854871,41.0588084 39.374534,41.1803958 38.9718596,41.2809822 C37.9958612,40.5265808 36.7804852,39.3673962 35.325695,37.8033934 C33.7051693,36.0553902 32.4990007,34.8410063 31.7071529,34.1602051 C31.6519077,34.6386059 31.5506264,35.8897894 31.4033058,37.913793 C31.3112305,39.4409957 31.1454974,40.6553797 30.9061016,41.5569813 C30.8692714,41.5569813 30.754179,41.6029807 30.5608208,41.6949809 C30.3674626,41.786981 30.2063332,41.8145807 30.0774278,41.7777806 C29.2671649,41.5937803 28.8620396,41.0325877 28.8620396,40.094186 C28.8620396,39.8181855 28.8988692,39.4501904 28.9725294,38.9901895 C29.0461897,38.4565886 29.0922267,38.125393 29.1106417,37.9965927 C29.184302,36.9293908 29.230339,35.6598076 29.248754,34.187805 L29.248754,31.1794146 C29.248754,28.6770102 29.3868649,26.570238 29.6630909,24.8590349 C29.8472416,23.7182329 30.9245067,23.1938398 32.8949186,23.28584 C33.8893321,23.32264 34.7548272,23.8194335 35.4914298,24.7762352 C36.1727872,25.6594368 36.5134608,26.6162241 36.5134608,27.646626 C36.5134608,28.5114275 36.191202,29.3762161 35.5466747,30.2410176 C34.9942228,31.013819 34.3128756,31.621011 33.5026127,32.0626118 C33.1711416,32.2466121 33.0054085,32.4490094 33.0054085,32.6698098 C33.0054085,32.9090103 33.1987637,33.1942065 33.5854801,33.5254071 C33.8801211,33.7646075 34.1747578,34.0038044 34.4693988,34.2430048 C34.4878139,34.2614048 35.5006272,35.1813927 37.5078693,37.0029959 C38.069859,37.5075599 38.5597991,37.9887248 38.977692,38.4464932 C39.0029994,37.0005758 39.104639,35.2038235 39.2826123,33.0562086 C39.5588383,29.9834031 39.6969492,27.7662324 39.6969492,26.40463 C39.6969492,25.4662283 39.6601196,24.58304 39.5864594,23.7550385 C39.8258552,23.515838 40.1296992,23.3962396 40.4980005,23.3962396 C41.197773,23.3962396 41.6028983,23.6538362 41.7133887,24.1690371 C41.7686339,25.6778398 41.7041821,27.93641 41.5200315,30.9448154 C41.3358809,33.9532208 41.2622217,36.2117909 41.2990518,37.7205936 C41.8146736,37.4997932 42.4868134,37.1133983 43.3154913,36.5613973 C44.2178295,35.9357962 44.8715545,35.5218017 45.2766859,35.3194013 C45.3687613,35.3194013 45.5298907,35.3010016 45.760079,35.2642015 C45.9902673,35.2274014 46.1606041,35.2090017 46.2710945,35.2090017 C46.6393958,35.2090017 46.9064102,35.3561997 47.0721458,35.6506003 C47.2931266,36.055401 47.2931266,36.3957965 47.0721458,36.671797 C47.0353157,36.690197 45.9580505,37.4537869 43.8403181,38.9625896 C42.6065087,39.8457912 41.5108288,40.4989826 40.5532454,40.9221833 C40.442755,40.9773834 40.3322663,41.0049831 40.2217759,41.0049831 C40.1127999,41.0049831 40.0071149,40.9753952 39.9047202,40.9162191 Z M25.2089694,32.2006114 C25.0800639,30.8574089 24.7209755,30.0570195 24.1316935,29.7994191 C24.0396181,29.762619 23.9567516,29.7442192 23.8830913,29.7442192 C23.6621105,29.7442192 23.3858887,29.9282168 23.0544176,30.2962175 C22.6861163,30.7194182 22.400687,30.9678149 22.1981213,31.0414151 C22.0692159,31.0966152 21.885068,31.0414159 21.6456721,30.8758156 C21.4062763,30.7102153 21.2497506,30.6274164 21.1760903,30.6274164 C21.1208451,30.6274164 21.0748082,30.6458162 21.037978,30.6826162 C20.3934508,31.2346172 20.071192,32.0902059 20.071192,33.249408 C20.071192,34.0406094 20.2553399,34.7122005 20.6236411,35.2642015 C21.139263,36.0186029 21.5720105,36.3957979 21.9218967,36.3957979 C22.7321596,36.3957979 23.5147881,35.8898046 24.2698058,34.8778028 C24.9879933,33.921001 25.3010447,33.0286128 25.2089694,32.2006114 Z M34.3865314,27.6742259 C34.4417766,27.3430253 34.4601914,27.0486292 34.4417763,26.7910287 C34.3865311,26.404628 34.2254017,26.0550326 33.9583833,25.7422321 C33.6913649,25.4294315 33.263221,25.2730336 32.673939,25.2730336 C32.2319774,25.2730336 31.9557556,25.4110318 31.8452652,25.6870323 C31.7531899,26.1470331 31.7071529,26.6714262 31.7071529,27.2602272 C31.7071529,27.4994276 31.7347751,28.1158195 31.7900203,29.1094213 C31.8268504,29.8638226 31.8268504,30.4802145 31.7900203,30.9586153 C33.3184706,29.8178133 34.1839657,28.7230278 34.3865314,27.6742259 L34.3865314,27.6742259 Z M56.1668405,33.7738063 C55.9826898,34.1970071 55.8077493,34.6202015 55.6420137,35.0434022 C55.421033,35.5402031 55.1816407,35.9357979 54.9238298,36.2301984 C54.3529628,36.9477997 53.7821043,37.6561903 53.2112373,38.3553916 C52.5298799,39.2017931 51.9129845,39.7905853 51.3605326,40.1217859 C51.1763819,40.3425863 50.9738192,40.5725833 50.7528385,40.8117837 C50.5318577,41.0509841 50.3108802,41.1705825 50.0898995,41.1705825 C49.9794091,41.1705825 49.8505055,41.1429829 49.703185,41.0877828 C49.5558645,41.0325827 49.3947351,40.9681836 49.219792,40.8945834 C49.0448489,40.8209833 48.920549,40.7013849 48.8468888,40.5357846 C48.7916436,39.7629832 48.7640214,38.9349941 48.7640214,38.0517926 C48.7640214,37.1501909 48.800851,35.8070087 48.8745112,34.0222055 C48.9481715,32.2374023 48.9850011,30.8942201 48.9850011,29.9926184 C48.9850011,28.7966163 48.9389641,27.7018308 48.8468888,26.708229 C48.8284737,26.689829 48.6259111,26.4782318 48.2391947,26.073431 C47.9997988,25.8342306 47.8801027,25.6134335 47.8801027,25.4110332 C47.8801027,25.319033 47.8985175,25.2270342 47.9353476,25.135034 C48.027423,24.9142336 48.2299856,24.7854353 48.5430417,24.7486353 C48.7824376,24.7118352 49.0218298,24.6842356 49.2612257,24.6658355 C50.8080911,24.9970361 52.4285925,25.8618247 54.1227785,27.2602272 C54.56474,27.6282279 54.9238284,28.0146228 55.2000544,28.4194235 C56.0839775,29.7258258 56.5259324,30.9494097 56.5259324,32.0902117 C56.5259324,32.6790128 56.4062363,33.2402053 56.1668405,33.7738063 L56.1668405,33.7738063 Z M54.1780234,30.8206158 C54.0122878,29.6614137 53.0270966,28.6402272 51.2224203,27.7570256 C51.0935148,30.8298311 51.0566852,34.0865881 51.1119304,37.5273942 C53.1928328,35.4481905 54.2332683,33.4702167 54.2332683,31.5934133 C54.2332683,31.3358128 54.2148535,31.0782162 54.1780234,30.8206158 L54.1780234,30.8206158 Z" id="WORLd" fill="#FFFFFF" transform="translate(29.828826, 32.534547) rotate(-14.000000) translate(-29.828826, -32.534547) "></path>
                        <path d="M26.7535002,56.7710706 C26.8087454,56.8446707 26.8363676,56.9274696 26.8363676,57.0194698 C26.8363676,57.4426706 26.3944127,57.7646663 25.5104896,57.9854667 C24.5344911,57.2310653 23.3191151,56.0718807 21.864325,54.5078779 C20.2437993,52.7598747 19.0376306,51.5454908 18.2457828,50.8646896 C18.1905376,51.3430904 18.0892563,52.5942739 17.9419358,54.6182775 C17.8498604,56.1454802 17.6841273,57.3598642 17.4447315,58.2614658 C17.4079014,58.2614658 17.2928089,58.3074652 17.0994508,58.3994654 C16.9060926,58.4914655 16.7449632,58.5190652 16.6160577,58.4822651 C15.8057949,58.2982648 15.4006695,57.7370722 15.4006695,56.7986705 C15.4006695,56.52267 15.4374991,56.1546749 15.5111594,55.6946741 C15.5848196,55.1610731 15.6308566,54.8298775 15.6492717,54.7010772 C15.7229319,53.6338753 15.7689689,52.3642921 15.7873839,50.8922895 L15.7873839,47.8838991 C15.7873839,45.3814947 15.9254949,43.2747225 16.2017208,41.5635194 C16.3858715,40.4227174 17.4631366,39.8983243 19.4335486,39.9903245 C20.4279621,40.0271245 21.2934571,40.523918 22.0300597,41.4807197 C22.7114171,42.3639213 23.0520907,43.3207086 23.0520907,44.3511105 C23.0520907,45.215912 22.7298319,46.0807006 22.0853046,46.9455021 C21.5328527,47.7183035 20.8515055,48.3254955 20.0412427,48.7670963 C19.7097715,48.9510966 19.5440384,49.153494 19.5440384,49.3742943 C19.5440384,49.6134948 19.7373937,49.898691 20.12411,50.2298916 C20.4187511,50.469092 20.7133877,50.7082889 21.0080287,50.9474893 C21.0264438,50.9658893 22.0392572,51.8858772 24.0464992,53.7074804 C25.3171387,54.8482825 26.2194634,55.869469 26.7535002,56.7710706 L26.7535002,56.7710706 Z M20.9251614,44.3787104 C20.9804065,44.0475098 20.9988213,43.7531137 20.9804063,43.4955132 C20.9251611,43.1091125 20.7640317,42.7595172 20.4970132,42.4467166 C20.2299948,42.133916 19.801851,41.9775181 19.2125689,41.9775181 C18.7706073,41.9775181 18.4943855,42.1155163 18.3838951,42.3915168 C18.2918198,42.8515176 18.2457828,43.3759107 18.2457828,43.9647117 C18.2457828,44.2039121 18.273405,44.820304 18.3286502,45.8139058 C18.3654803,46.5683071 18.3654803,47.184699 18.3286502,47.6630998 C19.8571006,46.5222978 20.7225956,45.4275123 20.9251614,44.3787104 L20.9251614,44.3787104 Z M35.130011,42.7779155 C34.4486536,43.053916 33.4450476,43.3759118 32.1191629,43.7439124 C30.7932783,44.1119131 29.7896723,44.4339088 29.1083149,44.7099093 C28.9425793,45.1883102 28.8228832,46.2554961 28.7492229,47.911499 C29.0438639,48.0218992 29.3845375,48.0770985 29.7712539,48.0770985 C30.0474799,48.0770985 30.4802274,48.0310991 31.0695095,47.939099 C31.6587916,47.8470988 32.0915391,47.8010994 32.3677651,47.8010994 C32.8833869,47.8010994 33.3253418,47.9114979 33.6936431,48.1322983 C33.951454,48.500299 34.0803575,48.7394958 34.0803575,48.849896 C34.0803575,48.9786963 34.0159058,49.0798949 33.8870003,49.1534951 C33.8501702,49.1718951 33.7212667,49.3006934 33.5002859,49.5398938 C33.3529654,49.7054941 33.1688175,49.7790931 32.9478367,49.7606931 C32.5611203,49.8526933 31.852151,49.9078925 30.8209073,49.9262926 C29.9553993,49.9446926 29.2648447,50.0550912 28.7492229,50.2574915 C28.3993367,51.6190939 28.2243962,52.6954797 28.2243962,53.4866811 C28.2243962,54.0202821 28.2980553,54.4434765 28.4453759,54.7562771 C29.3108839,55.3634782 30.8116892,55.6210748 32.9478367,55.5290746 C33.0951572,55.5290746 33.2516829,55.4600755 33.4174185,55.3220753 C33.5831541,55.184075 33.721265,55.1150759 33.8317554,55.1150759 C34.3473772,55.0046757 34.6880508,55.3910706 34.8537864,56.2742722 C34.9090316,56.5686727 34.8583909,56.8400691 34.7018629,57.0884696 C34.5453348,57.33687 34.3197536,57.4702683 34.0251126,57.4886683 C31.7968898,57.5622684 29.863337,57.3874707 28.2243962,56.96427 C27.7087744,56.8354697 27.2391973,56.5502735 26.8156508,56.1086727 C26.3921043,55.6670719 26.152712,55.1702785 26.0974668,54.6182775 C25.9317312,53.0174746 25.9317312,51.5822936 26.0974668,50.3126913 C25.581845,49.9630907 25.3516602,49.6226952 25.4069054,49.2914946 C25.4253204,49.1258943 25.568035,48.9740963 25.8350535,48.8360961 C26.1020719,48.6980958 26.2539939,48.5554977 26.290824,48.4082975 C26.3276542,48.2610972 26.4013133,47.3871087 26.5118037,45.7863059 C25.4805601,45.5839055 24.9741534,45.1975106 24.9925685,44.6271096 C25.0109835,44.0935086 25.3332423,43.6703142 25.9593545,43.3575137 C26.5486366,43.1183132 27.1379098,42.8791164 27.7271919,42.639916 C28.4269644,42.2903153 29.2924594,41.9775195 30.3237031,41.701519 C31.2076262,41.4623186 32.1007434,41.2323216 33.0030816,41.0115212 C33.0951569,40.9931212 33.2056457,40.9839213 33.3345511,40.9839213 C33.8317579,40.9839213 34.4118237,41.1771187 35.0747661,41.5635194 C35.0931811,41.6371196 35.1392181,41.7751177 35.2128784,41.9775181 C35.2865386,42.1799185 35.3233682,42.3271165 35.3233682,42.4191167 C35.3233682,42.5663169 35.2589164,42.6859154 35.130011,42.7779155 L35.130011,42.7779155 Z M45.992543,55.2530755 C46.1030334,55.547476 46.1582778,55.8050726 46.1582778,56.025873 C46.1582778,56.3938736 46.0017521,56.7158694 45.688696,56.9918699 C45.3756399,57.2678704 45.1638698,57.3966687 45.0533794,57.3782686 C44.1510412,57.2126684 43.5801828,56.485878 43.340787,55.1978756 C43.0829761,53.7994731 42.779132,52.6310886 42.4292458,51.6926869 C41.8031336,51.747887 41.1770308,51.8030863 40.5509186,51.8582864 C39.8327311,51.9502865 39.27108,52.1710836 38.8659486,52.5206842 C38.6633829,53.0910853 38.3963684,54.1030719 38.0648973,55.5566745 C37.7518412,56.8998769 37.4479971,57.9210634 37.1533561,58.6202647 C37.0060356,58.9514653 36.6929842,59.043464 36.2141925,58.8962638 C35.6064954,58.6938634 35.2842366,58.4178671 35.2474064,58.0682664 C35.1921612,57.3690652 35.3947239,56.4306776 35.8551005,55.2530755 C36.4075525,53.9098731 36.7113965,52.9530857 36.7666417,52.3826847 C36.7850567,52.2170844 36.6653606,52.0330868 36.4075497,51.8306865 C36.1497388,51.6282861 36.0208353,51.4718882 36.0208353,51.361488 C36.0208353,51.2694878 36.0622686,51.1728891 36.1451363,51.0716889 C36.2280041,50.9704887 36.4213594,50.8876898 36.725208,50.8232897 C37.0290566,50.7588896 37.1993934,50.6622909 37.2362235,50.5334906 C37.5676947,49.613489 38.0925161,47.9023116 38.8107037,45.3999071 C39.4184008,43.2287032 39.9616371,41.5635252 40.4404287,40.4043232 C40.5509191,40.1467227 40.781104,40.0179244 41.1309902,40.0179244 C41.3888011,40.0179244 41.618986,40.1007233 41.8215517,40.2663236 C42.3371735,40.7079244 42.6686397,41.3703156 42.8159602,42.2535172 C42.9264506,43.0079186 43.027732,43.7623086 43.1198073,44.5167099 C44.0405605,48.8591177 44.9981295,52.4378704 45.992543,55.2530755 L45.992543,55.2530755 Z M54.8626591,40.0227896 C54.8650584,39.9942339 54.866258,39.9650123 54.866258,39.9351247 C54.866258,39.6223241 54.8018063,39.4199268 54.6729008,39.3279266 C54.2493543,39.0151261 53.7797772,38.8587281 53.2641554,38.8587281 C52.0671762,38.8587281 50.9162519,39.5211194 49.811348,40.8459217 C47.9145963,43.1275258 46.9662347,45.8966892 46.9662347,49.1534951 C46.9662347,49.7606961 47.0030643,50.3862879 47.0767246,51.030289 C47.2977053,53.1094928 47.454231,54.2962771 47.5463064,54.5906776 C47.6752118,54.9954783 47.8731708,55.4232727 48.1401892,55.8740735 C48.4072077,56.3248743 48.6696184,56.7618685 48.9274293,57.1850693 C49.958673,58.8594723 50.916242,59.9542578 51.8001651,60.4694587 C52.2973718,60.6718591 52.6656676,60.7914575 52.9050634,60.8282576 C53.1260442,60.8834577 53.3332106,60.7914589 53.5265688,60.5522585 C53.719927,60.313058 53.8166046,60.0462616 53.8166046,59.751861 C53.8166046,59.4574605 53.6692863,59.2274635 53.3746452,59.0618632 C53.0984193,58.951463 52.8221974,58.8318646 52.5459715,58.7030644 C51.8830291,58.3166637 51.3213781,57.6726722 50.8610015,56.7710706 C50.6768508,56.4030699 50.3730068,55.6302801 49.9494603,54.452678 C49.4338385,53.0174755 49.1760315,51.4902957 49.1760315,49.8710928 C49.1760315,46.4302866 50.2072596,43.6243237 52.2697469,41.4531198 C52.3036317,41.4161847 52.3467915,41.3800221 52.3992263,41.3446317 C52.4362354,41.4255854 52.4782449,41.5169479 52.5252546,41.6187193 C53.0961216,42.0971201 53.8327132,42.336317 54.7350514,42.336317 C55.1217677,42.336317 55.8215297,42.2627179 56.8343583,42.1155177 C57.7182814,41.9867174 58.4088359,41.940718 58.9060427,41.9775181 C58.9244578,43.3023205 58.8507986,45.2250951 58.685063,47.7458996 C58.5193274,50.3771043 58.4364609,52.2998789 58.4364609,53.5142811 C58.4364609,54.2686824 58.4548757,54.9862729 58.4917058,55.6670741 C58.5285359,56.2006751 58.7218912,56.6836687 59.0717774,57.1160695 C59.4216637,57.5484703 59.8636186,57.7738673 60.3976555,57.7922673 C60.6738815,57.8106674 60.8580293,57.6726692 60.9501047,57.3782686 C61.0053499,57.1942683 61.0237647,56.9274718 61.0053496,56.5778712 C60.9685195,55.4554692 60.9501047,54.3146843 60.9501047,53.1554822 C60.9501047,50.1010767 61.1342526,46.2831272 61.5025539,41.701519 C64.4673793,41.2231181 66.5482504,40.8367232 67.7452296,40.5423227 C68.2056062,40.4319225 68.5186576,40.0455276 68.6843932,39.3831264 C68.6843932,39.0519258 68.4357936,38.886328 67.9385868,38.886328 C67.993832,38.6103275 67.8557211,38.4723294 67.5242499,38.4723294 C67.0822884,38.4171293 66.5298447,38.4723285 65.8669024,38.6379288 C64.9645642,38.8771293 64.4029132,39.0059276 64.1819324,39.0243276 C63.4269147,39.2267279 62.6350788,39.3279266 61.8064009,39.3279266 C60.977723,39.3279266 60.2411314,39.2267279 59.5966042,39.0243276 C58.8047564,39.4475283 57.6077951,39.7419245 56.0056845,39.9075247 C55.5930759,39.945004 55.2120676,39.9834256 54.8626591,40.0227896 Z M41.959664,49.9814924 C41.9044188,49.3006912 41.7847227,48.5371013 41.600572,47.6906998 C41.4164214,46.9546984 41.2414809,46.2187082 41.0757453,45.4827068 C40.5232934,47.0099096 40.0445089,48.5370894 39.6393774,50.0642921 C39.9340185,50.009092 40.7074396,49.9814924 41.959664,49.9814924 Z" id="react" fill="#FFFFFF" transform="translate(42.042531, 49.647706) rotate(-20.000000) translate(-42.042531, -49.647706) "></path>
                        <g id="react-logo-official" transform="translate(51.318135, 3.547059)">
                            <ellipse id="Oval" fill="#00D8FF" cx="6.33481495" cy="5.66805984" rx="1.17218759" ry="1.17056315"></ellipse>
                            <path d="M6.33481495,3.28806022 C7.90863573,3.28806022 9.37067496,3.51357685 10.4730458,3.89255679 C11.8012463,4.34916672 12.6178778,5.04132661 12.6178778,5.66805984 C12.6178778,6.32118307 11.7523886,7.05646296 10.3260989,7.52837955 C9.24774796,7.88516949 7.8287951,8.0713928 6.33481495,8.0713928 C4.80309917,8.0713928 3.35264933,7.89657949 2.26240529,7.52443622 C0.882753551,7.05352296 0.0517520619,6.30869974 0.0517520619,5.66805984 C0.0517520619,5.04641327 0.831465817,4.35962005 2.14099705,3.90368679 C3.24748027,3.51847685 4.74561952,3.28806022 6.33481495,3.28806022 L6.33481495,3.28806022 Z" id="Shape" stroke="#00D8FF" stroke-width="0.66"></path>
                            <path d="M4.26010343,4.48492003 C5.04633621,3.12346691 5.97236605,1.97136043 6.85182802,1.20705388 C7.91146298,0.286180695 8.91985695,-0.0744825808 9.4635303,0.238604036 C10.030102,0.564873985 10.2355801,1.68093047 9.93241001,3.15051024 C9.70319239,4.26159673 9.15587399,5.58212319 8.40952647,6.87453299 C7.64432282,8.19958611 6.76808531,9.36697592 5.90058658,10.1242125 C4.80284215,11.0824657 3.74159495,11.4292223 3.18584153,11.1091823 C2.6465843,10.7986157 2.44033517,9.78102586 2.69904032,8.42041274 C2.91762654,7.27077959 3.46618332,5.85969648 4.26010343,4.48492003 L4.26010343,4.48492003 Z" id="Shape" stroke="#00D8FF" stroke-width="0.66"></path>
                            <path d="M4.26208951,6.87798632 C3.47359025,5.51783987 2.9365294,4.14129008 2.71266252,2.9987036 C2.44292876,1.62206048 2.63363969,0.569493984 3.176799,0.255497367 C3.74280996,-0.0717292479 4.81368384,0.307857359 5.93722402,1.3040972 C6.78670778,2.05729708 7.65899648,3.19029357 8.40751702,4.4814667 C9.17494041,5.80523649 9.7501341,7.14634294 9.97386078,8.2750461 C10.2569831,9.7033492 10.0278122,10.7946724 9.47259619,11.1156456 C8.93385301,11.4270989 7.94800696,11.0973523 6.89678365,10.1940025 C6.0085829,9.43074591 5.05832282,8.25143277 4.26208951,6.87798632 L4.26208951,6.87798632 Z" id="Shape" stroke="#00D8FF" stroke-width="0.66"></path>
                        </g>
                    </g>
                </g>
            </g>
        </g>
    </g>
</svg>