<?xml version="1.0" encoding="UTF-8" standalone="no"?>
<svg width="280px" height="281px" viewBox="0 0 280 281" version="1.1" xmlns="http://www.w3.org/2000/svg" xmlns:xlink="http://www.w3.org/1999/xlink">
    <!-- Generator: Sketch 3.7.2 (28276) - http://www.bohemiancoding.com/sketch -->
    <title>rwr-vip-svg copy</title>
    <desc>Created with Sketch.</desc>
    <defs>
        <rect id="path-1" x="0" y="0" width="254.4" height="255.363636" rx="40"></rect>
        <mask id="mask-2" maskContentUnits="userSpaceOnUse" maskUnits="objectBoundingBox" x="-12.5" y="-12.5" width="279.4" height="280.363636">
            <rect x="-12.5" y="-12.5" width="279.4" height="280.363636" fill="white"></rect>
            <use xlink:href="#path-1" fill="black"></use>
        </mask>
        <filter x="-50%" y="-50%" width="200%" height="200%" filterUnits="objectBoundingBox" id="filter-3">
            <feGaussianBlur stdDeviation="4" in="SourceGraphic"></feGaussianBlur>
        </filter>
        <filter x="-50%" y="-50%" width="200%" height="200%" filterUnits="objectBoundingBox" id="filter-4">
            <feGaussianBlur stdDeviation="4" in="SourceGraphic"></feGaussianBlur>
        </filter>
        <filter x="-50%" y="-50%" width="200%" height="200%" filterUnits="objectBoundingBox" id="filter-5">
            <feGaussianBlur stdDeviation="4" in="SourceGraphic"></feGaussianBlur>
        </filter>
    </defs>
    <g id="Page-1" stroke="none" stroke-width="1" fill="none" fill-rule="evenodd">
        <g id="Artboard-11" transform="translate(-5297.000000, -1694.000000)">
            <g id="rwr-vip-svg-copy" transform="translate(5310.000000, 1706.000000)">
                <g id="rwr-logo-vector" transform="translate(0.000000, 1.000000)">
                    <g id="Rectangle-18">
                        <use fill="#222222" fill-rule="evenodd" xlink:href="#path-1"></use>
                        <use stroke="#00D8FF" mask="url(#mask-2)" stroke-width="25" xlink:href="#path-1"></use>
                    </g>
                    <path d="M57.265838,84.1108902 C57.4760996,84.3910101 57.5812288,84.7061402 57.5812288,85.0562901 C57.5812288,86.6669796 55.8991615,87.8924857 52.5349765,88.7328455 C48.8203556,85.8616164 44.1946707,81.4497941 38.6577829,75.4972462 C32.4901104,68.8443985 27.8994685,64.2224894 24.8857195,61.6313803 C24.6754579,63.4521596 24.2899842,68.2141266 23.7292867,75.9174239 C23.3788507,81.7299119 22.7480755,86.351821 21.8369421,89.7832898 C21.6967677,89.7832898 21.2587294,89.9583622 20.5228139,90.308512 C19.7868984,90.6586619 19.1736448,90.7637053 18.6830344,90.6236454 C15.5991982,89.9233456 14.0573032,87.7874634 14.0573032,84.2159346 C14.0573032,83.165485 14.1974755,81.7649064 14.4778242,80.014157 C14.758173,77.9832877 14.9333883,76.7227671 15.0034755,76.2325572 C15.2838243,72.1708186 15.4590396,67.3388228 15.5291268,61.7364247 L15.5291268,50.2865809 C15.5291268,40.7625041 16.0547728,32.7441921 17.1060806,26.2314044 C17.8069525,21.8895459 21.9069914,19.8937215 29.4063205,20.2438714 C33.1910286,20.3839313 36.4850769,22.2747123 39.2885644,25.9162711 C41.8817903,29.2777099 43.1783839,32.919214 43.1783839,36.8408927 C43.1783839,40.1323016 41.9518765,43.4236611 39.4988249,46.7150699 C37.3962093,49.6563289 34.8030223,51.9672835 31.7191861,53.6480029 C30.4576167,54.3483027 29.8268415,55.1186208 29.8268415,55.9589806 C29.8268415,56.8693702 30.5627459,57.9548186 32.0345768,59.2153582 C33.1559718,60.1257478 34.27735,61.0361239 35.398745,61.9465136 C35.4688322,62.0165435 39.3235696,65.5179898 46.963073,72.4509574 C51.7990889,76.792816 55.2333096,80.6794213 57.265838,84.1108902 L57.265838,84.1108902 Z M35.0833542,36.9459371 C35.2936158,35.6853976 35.3637019,34.5649348 35.2936147,33.5845151 C35.0833532,32.1138856 34.4700995,30.783336 33.4538353,29.5928264 C32.4375711,28.4023168 30.8080684,27.807071 28.5652784,27.807071 C26.8831859,27.807071 25.8318939,28.3322879 25.4113708,29.3827375 C25.0609348,31.1334869 24.8857195,33.1293113 24.8857195,35.3702705 C24.8857195,36.2806602 24.9908487,38.6266292 25.2011103,42.4082479 C25.3412846,45.279477 25.3412846,47.625446 25.2011103,49.4462253 C31.0183468,45.1043668 34.3123952,40.9376458 35.0833542,36.9459371 L35.0833542,36.9459371 Z M89.1465879,30.8533597 C86.5533619,31.9038093 82.7336675,33.1293155 77.6873901,34.529915 C72.6411126,35.9305146 68.8214182,37.1560208 66.2281923,38.2064704 C65.5974076,40.0272498 65.1418477,44.0889275 64.8614989,50.3916253 C65.9828939,50.8118052 67.2794875,51.0218919 68.7513184,51.0218919 C69.8026262,51.0218919 71.4496504,50.8468196 73.6924404,50.4966697 C75.9352304,50.1465199 77.5822545,49.9714475 78.6335624,49.9714475 C80.5960036,49.9714475 82.2780709,50.3916211 83.6798146,51.2319808 C84.6610352,52.6325803 85.1516382,53.5429564 85.1516382,53.9631362 C85.1516382,54.453346 84.9063367,54.8385051 84.4157264,55.118625 C84.275552,55.188655 83.7849491,55.6788575 82.9439028,56.5892472 C82.3832053,57.219517 81.682344,57.4996327 80.8412977,57.4296027 C79.3694668,57.7797526 76.6711506,57.9898394 72.7462681,58.0598693 C69.4521703,58.1298993 66.8239402,58.5500729 64.8614989,59.3204026 C63.5298424,64.5026208 62.8640241,68.599313 62.8640241,71.6106019 C62.8640241,73.6414712 63.1443686,75.2521365 63.7050661,76.4426461 C66.9991639,78.7536353 72.711184,79.7340403 80.8412977,79.3838904 C81.4019952,79.3838904 81.9977274,79.1212819 82.628512,78.5960571 C83.2592967,78.0708323 83.7849427,77.8082238 84.2054659,77.8082238 C86.1679071,77.388044 87.4645006,78.8586514 88.0952853,82.2200903 C88.3055469,83.3405699 88.11281,84.3734965 87.5170689,85.3189012 C86.9213278,86.2643059 86.0627726,86.7720156 84.9413777,86.8420456 C76.460828,87.1221655 69.1017838,86.4568907 62.8640241,84.8462012 C60.9015829,84.3559914 59.1143864,83.270543 57.5023811,81.5898236 C55.8903758,79.9091042 54.979256,78.0183232 54.7689945,75.9174239 C54.1382098,69.824816 54.1382098,64.3625598 54.7689945,59.5304915 C52.8065532,58.1999219 51.9304765,56.9043868 52.1407381,55.6438472 C52.2108253,55.0135775 52.7539928,54.4358388 53.770257,53.910614 C54.7865213,53.3853892 55.3647319,52.842665 55.5049063,52.2824252 C55.6450806,51.7221854 55.9254252,48.3958114 56.3459483,42.3032035 C52.4210658,41.5328738 50.4936971,40.0622663 50.5637843,37.8913371 C50.6338715,35.8604678 51.8603788,34.2498025 54.2433432,33.0592929 C56.4861332,32.1489032 58.7288895,31.2385272 60.9716795,30.3281375 C63.6349926,28.9975679 66.929041,27.8070762 70.8539235,26.7566266 C74.2181085,25.8462369 77.617286,24.9708753 81.0515582,24.1305156 C81.4019942,24.0604856 81.822511,24.0254712 82.3131213,24.0254712 C84.2054753,24.0254712 86.4131886,24.7607749 88.9363273,26.2314044 C89.0064145,26.5115243 89.1816299,27.0367412 89.4619786,27.807071 C89.7423274,28.5774007 89.8824996,29.1376321 89.8824996,29.487782 C89.8824996,30.0480218 89.6371982,30.5032098 89.1465879,30.8533597 L89.1465879,30.8533597 Z M130.489061,78.333446 C130.909584,79.4539256 131.119842,80.4343306 131.119842,81.2746903 C131.119842,82.6752898 130.52411,83.900796 129.332628,84.9512457 C128.141146,86.0016953 127.335155,86.4918978 126.914632,86.4218678 C123.48036,85.791598 121.30769,83.0254555 120.396556,78.1233571 C119.415336,72.801079 118.258914,68.3542422 116.927258,64.7827134 C114.544293,64.9928033 112.161365,65.2028901 109.7784,65.41298 C107.045,65.7631299 104.907373,66.603477 103.365455,67.9340466 C102.594496,70.1049758 101.578247,73.9565667 100.316677,79.4889348 C99.1251953,84.6011231 97.968774,88.4877285 96.847379,91.1488676 C96.2866815,92.4094071 95.0952172,92.7595517 93.2729504,92.1993119 C90.9600732,91.4289822 89.7335658,90.3785483 89.5933914,89.0479788 C89.3831299,86.3868397 90.1540774,82.8153645 91.906257,78.333446 C94.0088727,73.2212578 95.1652939,69.5797536 95.3755555,67.4088244 C95.4456426,66.7785546 94.9900828,66.0782653 94.0088621,65.3079356 C93.0276415,64.5376059 92.5370386,63.94236 92.5370386,63.5221801 C92.5370386,63.1720303 92.6947324,62.8043784 93.0101247,62.4192135 C93.3255171,62.0340487 94.0614215,61.7189185 95.2178601,61.4738136 C96.3742987,61.2287087 97.0225954,60.8610568 97.1627698,60.370847 C98.4243392,56.8693482 100.421794,50.3566581 103.155194,40.8325814 C105.468072,32.5690442 107.535613,26.2314264 109.357879,21.8195379 C109.778402,20.8391183 110.654479,20.3489158 111.986136,20.3489158 C112.967356,20.3489158 113.843433,20.664046 114.614392,21.2943158 C116.576833,22.9750352 117.838384,25.4960765 118.399081,28.8575153 C118.819604,31.7287444 119.205078,34.5999303 119.555514,37.4711593 C123.059873,53.9982337 126.704353,67.6188597 130.489061,78.333446 L130.489061,78.333446 Z M115.140043,58.2699582 C114.929782,55.6788491 114.474222,52.7726487 113.77335,49.5512698 C113.072478,46.7500707 112.40666,43.9489137 111.775875,41.1477147 C109.67326,46.9602027 107.85102,52.7726035 106.309102,58.5850915 C107.430497,58.3750016 110.374115,58.2699582 115.140043,58.2699582 L115.140043,58.2699582 Z M165.839109,71.1904242 C165.698934,71.2604542 161.598896,74.1666546 153.538869,79.9091126 C148.843028,83.2705515 144.672902,85.7565783 141.028369,87.3672678 C140.607846,87.5773577 140.187329,87.6824011 139.766806,87.6824011 C138.785585,87.6824011 137.874465,87.0521407 137.033419,85.7916012 C135.77185,84.1108818 135.106031,83.2355202 135.035944,83.1654902 C134.89577,77.0028523 135.281244,68.4243089 136.192377,57.4296027 C137.243685,45.7345967 137.769331,37.2961112 137.769331,32.1138929 C137.769331,28.5423642 137.629159,25.1809757 137.34881,22.0296268 C138.259943,21.1192371 139.416364,20.6640491 140.818108,20.6640491 C143.481421,20.6640491 145.023316,21.6444541 145.443839,23.6052934 C145.654101,29.3477514 145.408799,37.9438021 144.707928,49.3937031 C144.007056,60.8436042 143.726711,69.4396548 143.866886,75.1821129 C145.829327,74.3417531 148.387471,72.8711457 151.541394,70.7702464 C154.975666,68.3892272 157.463724,66.8135764 159.005642,66.0432467 C159.356078,66.0432467 159.969332,65.9732178 160.845422,65.8331578 C161.721512,65.6930979 162.369808,65.6230689 162.790331,65.6230689 C164.192075,65.6230689 165.208324,66.1833003 165.839109,67.3037799 C166.680155,68.8444394 166.680155,70.1399745 165.839109,71.1904242 L165.839109,71.1904242 Z" id="Real" fill="#A0A0A0" filter="url(#filter-3)" transform="translate(90.263598, 56.331280) rotate(-9.000000) translate(-90.263598, -56.331280) "></path>
                    <path d="M60.4894064,97.6590336 C62.1014117,98.4293633 62.9074023,99.5498261 62.9074023,101.020456 C62.9074023,102.000875 62.4868855,103.331425 61.6458392,105.012144 C60.5945314,107.253104 60.0338423,108.513624 59.9637551,108.793744 C58.2816626,113.975962 56.6872031,121.854216 55.1803285,132.428743 C53.673454,143.003269 52.1490806,150.77648 50.6071624,155.748608 C50.1866393,157.149208 48.995175,157.849497 47.0327338,157.849497 C46.1216003,157.849497 45.3156098,157.674425 44.6147379,157.324275 C42.021512,155.993705 40.1642294,153.402635 39.0428344,149.550986 C38.9727472,149.200836 38.3069289,145.69939 37.0453595,139.046542 C36.4145749,135.545044 35.8188427,131.798496 35.2581452,127.806788 C34.2769246,129.767627 32.9803311,134.634637 31.3683258,142.407965 C29.966582,149.130842 28.3195578,153.402607 26.4272038,155.223386 C25.8665063,155.783626 24.8853004,155.853655 23.4835566,155.433475 C21.380941,155.153355 19.9792183,153.892834 19.2783464,151.651875 C18.8578233,149.691036 18.4373065,147.730226 18.0167834,145.769387 C16.755214,140.727228 15.7564866,132.883989 15.0205711,122.239432 C14.2846557,111.594876 13.2859282,103.821665 12.0243589,98.9195669 C11.8140973,98.0792071 11.9192265,97.2738745 12.3397496,96.5035448 C12.7602727,95.733215 13.3560049,95.3130415 14.126964,95.2430115 C14.6876614,95.1029515 15.2483505,95.0329226 15.809048,95.0329226 C17.7714893,95.0329226 19.2783412,95.9082842 20.329649,97.6590336 C21.451044,103.541552 22.7826806,114.991281 24.3245987,132.008565 C24.8852962,130.818055 25.5335929,128.594637 26.2695084,125.338243 C27.0054239,122.081849 27.7238068,119.718373 28.4246786,118.247744 C29.0554633,115.586605 29.6511955,112.925505 30.211893,110.264366 C31.0529392,107.042987 32.8050926,105.432322 35.4684057,105.432322 C36.1692776,105.432322 36.9402251,105.537365 37.7812713,105.747455 C37.8513585,106.167635 38.1667461,106.412736 38.7274436,106.482766 C39.2881411,106.552796 39.6035287,106.65784 39.6736159,106.7979 C41.215534,110.229369 42.3719553,114.816263 43.1429143,120.558721 C44.3343965,128.682198 45.0703009,133.374136 45.3506497,134.634676 C46.4720447,128.402008 47.6284659,122.204448 48.8199481,116.04181 C50.291779,108.828723 52.1841047,102.946293 54.4969819,98.3943447 C54.9875922,97.483955 56.0038412,97.028767 57.5457593,97.028767 C58.6671543,97.028767 59.6483602,97.2388537 60.4894064,97.6590336 L60.4894064,97.6590336 Z M104.355005,129.067321 C100.219861,138.381308 94.3676689,143.913593 86.7982527,145.664342 C85.8871193,145.874432 84.9759995,145.979475 84.0648661,145.979475 C80.0698964,145.979475 76.0399436,143.808579 71.9748868,139.46672 C69.2414865,136.525461 67.8748068,132.708885 67.8748068,128.016876 C67.8748068,122.834658 69.4167018,117.267359 72.500538,111.314811 C73.8321946,108.793731 75.4441757,106.622835 77.3365298,104.802055 C79.5092326,102.631126 81.5767736,101.545678 83.5392148,101.545678 C84.6606098,101.545678 85.7119018,101.965851 86.6931225,102.806211 C87.6743431,103.646571 90.3025732,104.767034 94.5778916,106.167633 C97.9420766,107.288113 100.325005,109.178894 101.726749,111.840033 C104.1798,116.532041 105.406308,120.558704 105.406308,123.920143 C105.406308,125.810953 105.055877,127.526661 104.355005,129.067321 L104.355005,129.067321 Z M151.876174,155.725909 C151.041779,156.268599 149.858301,156.731357 148.325734,157.114186 C144.611114,154.242957 139.985429,149.831135 134.448541,143.878587 C128.280868,137.225739 123.690226,132.60383 120.676477,130.012721 C120.466216,131.8335 120.080742,136.595467 119.520045,144.298764 C119.169609,150.111252 118.538833,154.733162 117.6277,158.16463 C117.487526,158.16463 117.049487,158.339703 116.313572,158.689853 C115.577656,159.040002 114.964403,159.145046 114.473792,159.004986 C111.389956,158.304686 109.848061,156.168804 109.848061,152.597275 C109.848061,151.546825 109.988233,150.146247 110.268582,148.395498 C110.548931,146.364628 110.724146,145.104108 110.794233,144.613898 C111.074582,140.552159 111.249798,135.720163 111.319885,130.117765 L111.319885,118.667921 C111.319885,109.143845 111.845531,101.125533 112.896839,94.6127449 C113.59771,90.2708864 117.697749,88.275062 125.197078,88.6252119 C128.981786,88.7652718 132.275835,90.6560528 135.079322,94.2976115 C137.672548,97.6590504 138.969142,101.300555 138.969142,105.222233 C138.969142,108.513642 137.742634,111.805002 135.289583,115.09641 C133.186967,118.037669 130.59378,120.348624 127.509944,122.029343 C126.248375,122.729643 125.617599,123.499961 125.617599,124.340321 C125.617599,125.250711 126.353504,126.336159 127.825335,127.596699 C128.94673,128.507088 130.068108,129.417464 131.189503,130.327854 C131.25959,130.397884 135.114328,133.89933 142.753831,140.832298 C144.892747,142.752653 146.757444,144.583953 148.347932,146.326206 C148.444251,140.823087 148.831089,133.984702 149.50845,125.810943 C150.559758,114.115937 151.085404,105.677452 151.085404,100.495233 C151.085404,96.9237047 150.945231,93.5623162 150.664883,90.4109673 C151.576016,89.5005776 152.732437,89.0453896 154.134181,89.0453896 C156.797494,89.0453896 158.339389,90.0257946 158.759912,91.9866339 C158.970174,97.7290919 158.724872,106.325143 158.024,117.775044 C157.323129,129.224945 157.042784,137.820995 157.182958,143.563453 C159.1454,142.723094 161.703544,141.252486 164.857467,139.151587 C168.291739,136.770568 170.779797,135.194917 172.321715,134.424587 C172.672151,134.424587 173.285405,134.354558 174.161495,134.214498 C175.037584,134.074438 175.685881,134.004409 176.106404,134.004409 C177.508148,134.004409 178.524397,134.564641 179.155182,135.68512 C179.996228,137.22578 179.996228,138.521315 179.155182,139.571765 C179.015007,139.641795 174.914968,142.547995 166.854942,148.290453 C162.1591,151.651892 157.988975,154.137919 154.344442,155.748608 C153.923918,155.958698 153.503402,156.063742 153.082878,156.063742 C152.668119,156.063742 152.265885,155.951131 151.876174,155.725909 Z M95.9445849,122.554566 C95.4539746,117.442377 94.0872949,114.396119 91.844505,113.415699 C91.494069,113.275639 91.1786814,113.205611 90.8983327,113.205611 C90.0572864,113.205611 89.0059944,113.9059 87.744425,115.306499 C86.3426813,116.917189 85.2563462,117.862579 84.4853871,118.142699 C83.9947768,118.352789 83.2939154,118.142702 82.382782,117.512433 C81.4716486,116.882163 80.8759164,116.567033 80.5955677,116.567033 C80.3853061,116.567033 80.2100908,116.637062 80.0699164,116.777121 C77.6168649,118.878021 76.3903575,122.134366 76.3903575,126.546254 C76.3903575,129.557543 77.0912188,132.113599 78.4929626,134.214498 C80.4554038,137.085727 82.102428,138.52132 83.4340846,138.52132 C86.5179208,138.52132 89.4965816,136.595525 92.3701562,132.743876 C95.1035565,129.102317 96.2950208,125.705915 95.9445849,122.554566 Z M130.874112,105.327278 C131.084374,104.066738 131.15446,102.946275 131.084373,101.965856 C130.874111,100.495226 130.260857,99.1646765 129.244593,97.9741669 C128.228329,96.7836573 126.598826,96.1884114 124.356036,96.1884114 C122.673944,96.1884114 121.622652,96.7136284 121.202129,97.764078 C120.851693,99.5148274 120.676477,101.510652 120.676477,103.751611 C120.676477,104.662001 120.781607,107.00797 120.991868,110.789588 C121.132043,113.660817 121.132043,116.006786 120.991868,117.827566 C126.809105,113.485707 130.103153,109.318986 130.874112,105.327278 L130.874112,105.327278 Z M213.769318,128.542099 C213.068446,130.152788 212.402628,131.763453 211.771843,133.374143 C210.930797,135.264952 210.019677,136.770574 209.038457,137.891054 C206.865754,140.622223 204.693084,143.318336 202.520381,145.979475 C199.927155,149.200854 197.579269,151.44178 195.476654,152.70232 C194.775782,153.542679 194.004834,154.418041 193.163788,155.32843 C192.322742,156.23882 191.481708,156.694008 190.640662,156.694008 C190.220139,156.694008 189.729536,156.588965 189.168839,156.378875 C188.608141,156.168785 187.994887,155.923684 187.329059,155.643564 C186.663231,155.363444 186.190149,154.908256 185.909801,154.277986 C185.699539,151.336727 185.59441,148.185425 185.59441,144.823987 C185.59441,141.392518 185.734582,136.280406 186.014931,129.487499 C186.29528,122.694591 186.435452,117.582479 186.435452,114.15101 C186.435452,109.599062 186.260237,105.432341 185.909801,101.650722 C185.839713,101.580692 185.068766,100.77536 183.596935,99.2347002 C182.685802,98.3243105 182.230242,97.4839634 182.230242,96.7136336 C182.230242,96.3634838 182.300328,96.0133391 182.440502,95.6631893 C182.790938,94.8228295 183.561886,94.3326271 184.753368,94.1925671 C185.664501,94.0525072 186.575621,93.9474638 187.486754,93.8774338 C193.374078,95.1379734 199.541658,98.4293329 205.989679,103.751611 C207.671772,105.152211 209.038451,106.622818 210.089759,108.163477 C213.453944,113.135606 215.136012,117.792529 215.136012,122.134388 C215.136012,124.375347 214.680452,126.511229 213.769318,128.542099 L213.769318,128.542099 Z M206.19994,117.302344 C205.569155,112.890455 201.819547,109.00385 194.951003,105.642411 C194.460392,117.337417 194.32022,129.732537 194.530482,142.828142 C202.450334,134.914755 206.4102,127.386645 206.4102,120.243588 C206.4102,119.263168 206.340114,118.282763 206.19994,117.302344 L206.19994,117.302344 Z" id="WORLd" fill="#A0A0A0" filter="url(#filter-4)" transform="translate(113.527620, 123.825514) rotate(-14.000000) translate(-113.527620, -123.825514) "></path>
                    <path d="M101.823023,216.069 C102.033285,216.34912 102.138414,216.66425 102.138414,217.0144 C102.138414,218.625089 100.456347,219.850596 97.0921618,220.690955 C93.3775409,217.819726 88.7518559,213.407904 83.2149681,207.455356 C77.0472957,200.802508 72.4566538,196.180599 69.4429047,193.58949 C69.2326432,195.41027 68.8471694,200.172236 68.2864719,207.875534 C67.936036,213.688022 67.3052608,218.309931 66.3941273,221.7414 C66.253953,221.7414 65.8159146,221.916472 65.0799992,222.266622 C64.3440837,222.616772 63.73083,222.721815 63.2402197,222.581755 C60.1563835,221.881455 58.6144885,219.745573 58.6144885,216.174044 C58.6144885,215.123595 58.7546607,213.723016 59.0350095,211.972267 C59.3153582,209.941398 59.4905736,208.680877 59.5606608,208.190667 C59.8410095,204.128929 60.0162249,199.296933 60.086312,193.694535 L60.086312,182.244691 C60.086312,172.720614 60.6119581,164.702302 61.6632659,158.189514 C62.3641377,153.847656 66.4641767,151.851831 73.9635057,152.201981 C77.7482138,152.342041 81.0422622,154.232822 83.8457497,157.874381 C86.4389756,161.23582 87.7355691,164.877324 87.7355691,168.799003 C87.7355691,172.090411 86.5090617,175.381771 84.0560102,178.67318 C81.9533946,181.614439 79.3602075,183.925393 76.2763713,185.606113 C75.0148019,186.306413 74.3840267,187.076731 74.3840267,187.91709 C74.3840267,188.82748 75.1199312,189.912928 76.5917621,191.173468 C77.7131571,192.083858 78.8345352,192.994234 79.9559302,193.904623 C80.0260174,193.974653 83.8807549,197.4761 91.5202583,204.409067 C96.3562742,208.750926 99.7904949,212.637531 101.823023,216.069 L101.823023,216.069 Z M79.6405395,168.904047 C79.850801,167.643507 79.9208872,166.523045 79.8508,165.542625 C79.6405384,164.071995 79.0272847,162.741446 78.0110205,161.550936 C76.9947563,160.360427 75.3652537,159.765181 73.1224637,159.765181 C71.4403712,159.765181 70.3890791,160.290398 69.968556,161.340847 C69.6181201,163.091597 69.4429047,165.087421 69.4429047,167.32838 C69.4429047,168.23877 69.5480339,170.584739 69.7582955,174.366358 C69.8984699,177.237587 69.8984699,179.583556 69.7582955,181.404335 C75.575532,177.062477 78.8695804,172.895756 79.6405395,168.904047 L79.6405395,168.904047 Z M133.703773,162.81147 C131.110547,163.861919 127.290853,165.087425 122.244575,166.488025 C117.198298,167.888624 113.378603,169.114131 110.785378,170.16458 C110.154593,171.98536 109.699033,176.047037 109.418684,182.349735 C110.540079,182.769915 111.836673,182.980002 113.308504,182.980002 C114.359811,182.980002 116.006836,182.804929 118.249626,182.45478 C120.492416,182.10463 122.13944,181.929557 123.190748,181.929557 C125.153189,181.929557 126.835256,182.349731 128.237,183.190091 C129.21822,184.59069 129.708823,185.501066 129.708823,185.921246 C129.708823,186.411456 129.463522,186.796615 128.972912,187.076735 C128.832737,187.146765 128.342134,187.636967 127.501088,188.547357 C126.940391,189.177627 126.239529,189.457743 125.398483,189.387713 C123.926652,189.737862 121.228336,189.947949 117.303453,190.017979 C114.009356,190.088009 111.381125,190.508183 109.418684,191.278512 C108.087028,196.460731 107.421209,200.557423 107.421209,203.568712 C107.421209,205.599581 107.701554,207.210246 108.262251,208.400756 C111.556349,210.711745 117.268369,211.69215 125.398483,211.342 C125.95918,211.342 126.554913,211.079392 127.185697,210.554167 C127.816482,210.028942 128.342128,209.766334 128.762651,209.766334 C130.725092,209.346154 132.021686,210.816761 132.652471,214.1782 C132.862732,215.29868 132.669995,216.331606 132.074254,217.277011 C131.478513,218.222416 130.619958,218.730125 129.498563,218.800155 C121.018013,219.080275 113.658969,218.415001 107.421209,216.804311 C105.458768,216.314101 103.671572,215.228653 102.059566,213.547934 C100.447561,211.867214 99.5364413,209.976433 99.3261797,207.875534 C98.695395,201.782926 98.695395,196.32067 99.3261797,191.488601 C97.3637385,190.158032 96.4876618,188.862497 96.6979234,187.601957 C96.7680105,186.971687 97.3111781,186.393949 98.3274423,185.868724 C99.3437065,185.343499 99.9219171,184.800775 100.062092,184.240535 C100.202266,183.680295 100.48261,180.353921 100.903134,174.261313 C96.9782511,173.490984 95.0508823,172.020376 95.1209695,169.849447 C95.1910567,167.818578 96.4175641,166.207912 98.8005285,165.017403 C101.043318,164.107013 103.286075,163.196637 105.528865,162.286247 C108.192178,160.955678 111.486226,159.765186 115.411109,158.714736 C118.775294,157.804347 122.174471,156.928985 125.608743,156.088625 C125.959179,156.018596 126.379696,155.983581 126.870307,155.983581 C128.762661,155.983581 130.970374,156.718885 133.493513,158.189514 C133.5636,158.469634 133.738815,158.994851 134.019164,159.765181 C134.299513,160.535511 134.439685,161.095742 134.439685,161.445892 C134.439685,162.006132 134.194383,162.46132 133.703773,162.81147 L133.703773,162.81147 Z M175.046246,210.291556 C175.466769,211.412036 175.677027,212.39244 175.677027,213.2328 C175.677027,214.6334 175.081295,215.858906 173.889813,216.909356 C172.698331,217.959805 171.89234,218.450008 171.471817,218.379978 C168.037545,217.749708 165.864875,214.983565 164.953741,210.081467 C163.972521,204.759189 162.8161,200.312352 161.484443,196.740823 C159.101479,196.950913 156.71855,197.161 154.335586,197.37109 C151.602185,197.72124 149.464558,198.561587 147.92264,199.892156 C147.151681,202.063086 146.135432,205.914677 144.873863,211.447045 C143.682381,216.559233 142.525959,220.445838 141.404564,223.106977 C140.843867,224.367517 139.652402,224.717662 137.830136,224.157422 C135.517258,223.387092 134.290751,222.336658 134.150577,221.006089 C133.940315,218.34495 134.711263,214.773474 136.463442,210.291556 C138.566058,205.179368 139.722479,201.537864 139.932741,199.366934 C140.002828,198.736664 139.547268,198.036375 138.566047,197.266045 C137.584827,196.495716 137.094224,195.90047 137.094224,195.48029 C137.094224,195.13014 137.251918,194.762488 137.56731,194.377323 C137.882702,193.992159 138.618607,193.677028 139.775045,193.431923 C140.931484,193.186819 141.579781,192.819167 141.719955,192.328957 C142.981524,188.827458 144.978979,182.314768 147.71238,172.790691 C150.025257,164.527154 152.092798,158.189536 153.915065,153.777648 C154.335588,152.797228 155.211664,152.307026 156.543321,152.307026 C157.524542,152.307026 158.400618,152.622156 159.171577,153.252426 C161.134019,154.933145 162.395569,157.454186 162.956267,160.815625 C163.37679,163.686854 163.762263,166.55804 164.112699,169.429269 C167.617059,185.956344 171.261538,199.57697 175.046246,210.291556 L175.046246,210.291556 Z M208.805643,152.325543 C208.814774,152.21686 208.81934,152.105644 208.81934,151.991892 C208.81934,150.801383 208.574039,150.031065 208.083429,149.680915 C206.471423,148.490405 204.684227,147.895159 202.721786,147.895159 C198.166118,147.895159 193.785735,150.416201 189.580504,155.458359 C182.361523,164.142076 178.752087,174.681429 178.752087,187.076735 C178.752087,189.387724 178.89226,191.768708 179.172608,194.219757 C180.013655,202.133144 180.609387,206.65001 180.959823,207.770489 C181.450433,209.311149 182.203859,210.939321 183.220123,212.655056 C184.236387,214.37079 185.235115,216.033977 186.216335,217.644667 C190.141218,224.017394 193.785697,228.184116 197.149882,230.144955 C199.042236,230.915285 200.443959,231.370473 201.355092,231.510533 C202.196138,231.720622 202.984607,231.370478 203.720523,230.460088 C204.456438,229.549698 204.824391,228.534279 204.824391,227.413799 C204.824391,226.29332 204.263702,225.417958 203.142307,224.787688 C202.090999,224.367509 201.039707,223.912321 199.988399,223.422111 C197.46526,221.951481 195.327633,219.500469 193.575453,216.069 C192.874581,214.668401 191.71816,211.727186 190.106155,207.245267 C188.143714,201.782929 187.162508,195.970528 187.162508,189.80789 C187.162508,176.712285 191.087331,166.032874 198.937096,157.769336 C199.066061,157.628763 199.230326,157.491129 199.429891,157.356434 C199.570747,157.664542 199.730633,158.012264 199.909551,158.399603 C202.082254,160.220383 204.885699,161.130759 208.319972,161.130759 C209.791803,161.130759 212.455076,160.850643 216.309871,160.290403 C219.674056,159.800193 222.302286,159.625121 224.19464,159.765181 C224.264727,164.807339 223.984383,172.125362 223.353598,181.719469 C222.722813,191.733755 222.407426,199.051778 222.407426,203.673756 C222.407426,206.544985 222.477512,209.276113 222.617686,211.867222 C222.757861,213.898092 223.493765,215.736351 224.825422,217.382056 C226.157078,219.02776 227.839145,219.885614 229.871674,219.955644 C230.922982,220.025674 231.623843,219.500457 231.974279,218.379978 C232.184541,217.679678 232.254627,216.664259 232.184539,215.333689 C232.044365,211.06186 231.974279,206.720067 231.974279,202.308179 C231.974279,190.683203 232.67514,176.1522 234.076884,158.714736 C245.360921,156.893957 253.280655,155.42335 257.836322,154.30287 C259.588501,153.88269 260.779966,152.412083 261.41075,149.891004 C261.41075,148.630464 260.464588,148.000204 258.572233,148.000204 C258.782495,146.949754 258.256849,146.424537 256.99528,146.424537 C255.313187,146.214447 253.210603,146.424534 250.687464,147.054804 C247.253192,147.965193 245.115565,148.455396 244.274519,148.525426 C241.400944,149.295756 238.38724,149.680915 235.233317,149.680915 C232.079393,149.680915 229.275948,149.295756 226.822896,148.525426 C223.809147,150.136115 219.253549,151.256578 213.155963,151.886848 C211.585587,152.029493 210.135481,152.175724 208.805643,152.325543 Z M159.697229,190.228068 C159.486967,187.636959 159.031407,184.730759 158.330535,181.50938 C157.629663,178.708181 156.963845,175.907024 156.33306,173.105825 C154.230445,178.918313 152.408205,184.730713 150.866287,190.543201 C151.987682,190.333111 154.9313,190.228068 159.697229,190.228068 Z" id="react" fill="#A0A0A0" filter="url(#filter-5)" transform="translate(160.012619, 188.957687) rotate(-20.000000) translate(-160.012619, -188.957687) "></path>
                    <g id="react-logo-official" transform="translate(195.315291, 13.499999)">
                        <ellipse id="Oval" fill="#00D8FF" cx="24.1101166" cy="21.5724666" rx="4.46131099" ry="4.4551284"></ellipse>
                        <path d="M24.1101166,12.514259 C30.1000315,12.514259 35.6645092,13.3725686 39.8600997,14.814955 C44.915191,16.5527987 48.0232664,19.1871386 48.0232664,21.5724666 C48.0232664,24.0582341 44.72924,26.8566874 39.300824,28.6527878 C35.1966527,30.0107197 29.7961605,30.71948 24.1101166,30.71948 C18.2804521,30.71948 12.7600833,30.0541458 8.61064698,28.6377796 C3.35973367,26.8454978 0.196966803,24.0107229 0.196966803,21.5724666 C0.196966803,19.2064983 3.16453408,16.5925838 8.14857088,14.8573154 C12.359813,13.3912179 18.0616862,12.514259 24.1101166,12.514259 L24.1101166,12.514259 Z" id="Shape" stroke="#00D8FF" stroke-width="2.5"></path>
                        <path d="M16.2138265,17.0694718 C19.206205,11.8878218 22.7306469,7.50293894 26.0778529,4.59401105 C30.110792,1.08919518 33.9487093,-0.283478479 36.0179138,0.90811984 C38.174269,2.14989352 38.9563123,6.39757121 37.802456,11.9907479 C36.9300606,16.21951 34.8469831,21.2453942 32.0064067,26.1642673 C29.0940645,31.20738 25.7591307,35.6504308 22.4574564,38.5324504 C18.2794738,42.1795335 14.2403987,43.4992788 12.1252177,42.2812163 C10.0728208,41.099209 9.28784281,37.2262924 10.2724669,32.0478395 C11.1043995,27.6723701 13.1921902,22.3018299 16.2138265,17.0694718 L16.2138265,17.0694718 Z" id="Shape" stroke="#00D8FF" stroke-width="2.5"></path>
                        <path d="M16.2213855,26.1774106 C13.2203808,21.0007338 11.1763432,15.7616264 10.3243126,11.4129764 C9.29771395,6.17351378 10.0235541,2.1674771 12.0908021,0.972415352 C14.245023,-0.272999376 18.320737,1.17169592 22.5968974,4.96335502 C25.8300072,7.83001128 29.149912,12.1421621 31.9987588,17.0563285 C34.9195493,22.0945568 37.1087193,27.1987679 37.9602164,31.4945784 C39.0377715,36.9306574 38.1655539,41.0842008 36.0524183,42.3058155 C34.0019779,43.4911974 30.2498772,42.2361917 26.2489527,38.7980691 C22.8684871,35.8931374 19.2518257,31.4047068 16.2213855,26.1774106 L16.2213855,26.1774106 Z" id="Shape" stroke="#00D8FF" stroke-width="2.5"></path>
                    </g>
                </g>
                <path d="M35.2568451,3.22824653 L36.2724701,3.22824653 C37.9391451,4.79075435 38.9287186,6.32719731 39.2412201,7.83762153 C39.2412201,8.30637388 39.1370545,9.53031997 38.9287201,11.5094965 C38.9287201,12.8115864 39.9182936,19.7646418 41.8974701,32.3688715 C41.8974701,32.5772059 41.7933045,32.6813715 41.5849701,32.6813715 C42.2099733,35.181384 42.6526772,39.4782161 42.9130951,45.5719965 L42.5224701,45.5719965 C42.8349717,45.8324145 43.0693444,47.3688575 43.2255951,50.1813715 C43.2255951,50.7022075 43.1214295,51.1449114 42.9130951,51.5094965 C43.1214295,52.7074192 43.2255951,53.6969926 43.2255951,54.4782465 L43.2255951,55.4938715 C43.2255951,56.6917942 43.1214295,58.2282372 42.9130951,60.1032465 C42.9130951,60.3636645 43.0172608,60.4938715 43.2255951,60.4938715 L42.9130951,62.1344965 L42.9130951,67.0563715 C42.9130951,67.5772075 42.7828881,68.0199114 42.5224701,68.3844965 C42.7828881,68.8011653 42.9130951,69.1397036 42.9130951,69.4001215 C42.9130951,70.9626293 42.6787225,72.4990723 42.2099701,74.0094965 C42.4183045,74.4261653 42.5224701,74.8688692 42.5224701,75.3376215 C42.1058014,76.9001293 41.8974701,77.7855372 41.8974701,77.9938715 C41.9495537,78.4105403 42.157885,78.6188715 42.5224701,78.6188715 C46.897492,71.4313356 52.7568084,62.7335059 60.1005951,52.5251215 L71.9755951,36.9782465 L76.9755951,30.0251215 L81.8974701,24.0876215 C82.2099717,24.0876215 83.3297522,22.9678411 85.2568451,20.7282465 L85.8818451,20.7282465 L85.8818451,21.4313715 C85.3610092,21.4313715 85.0224709,21.9782411 84.8662201,23.0719965 C84.4495514,23.1240801 84.2412201,23.3584528 84.2412201,23.7751215 L84.5537201,23.7751215 C86.1162279,22.9938676 86.8974701,22.1084598 86.8974701,21.1188715 C86.4287178,21.1188715 86.1943451,20.8844989 86.1943451,20.4157465 C86.5589303,19.5303254 86.8974686,19.0876215 87.2099701,19.0876215 C87.8870569,19.0876215 88.2255951,19.5303254 88.2255951,20.4157465 C88.4339295,20.4157465 89.5276686,19.6605458 91.5068451,18.1501215 L91.8193451,18.1501215 C92.0797631,18.1501215 92.2099701,18.2542872 92.2099701,18.4626215 C94.2933139,18.4626215 95.9339225,17.5772137 97.1318451,15.8063715 L97.4443451,15.8063715 C97.9130975,16.0147059 98.2516358,16.1188715 98.4599701,16.1188715 C98.4599701,15.9105372 99.2412123,15.259502 100.80372,14.1657465 L101.11622,14.1657465 L101.11622,14.4782465 C99.1370436,17.3949278 98.1474701,19.0355364 98.1474701,19.4001215 C98.4078881,19.4001215 99.8401654,18.2022168 102.444345,15.8063715 L103.069345,15.8063715 L103.069345,16.4313715 C100.6735,19.7647215 99.4755951,22.0824067 99.4755951,23.3844965 C101.454772,20.7282333 102.548511,19.4001215 102.756845,19.4001215 C102.96518,19.8688739 103.069345,20.2074122 103.069345,20.4157465 L102.444345,21.7438715 C102.861014,21.7959551 103.069345,22.0303278 103.069345,22.4469965 C102.444342,22.4469965 101.689141,24.0876051 100.80372,27.3688715 L101.42872,27.3688715 C101.845389,27.1605372 102.183927,27.0563715 102.444345,27.0563715 L103.069345,28.0719965 L102.131845,32.6813715 C102.392263,32.6813715 102.834967,33.4626137 103.45997,35.0251215 C101.897462,43.045995 99.7881084,48.87927 97.1318451,52.5251215 L96.1162201,53.1501215 C95.6995514,52.9417872 95.3870545,52.8376215 95.1787201,52.8376215 L95.1787201,53.5407465 L95.4912201,55.1813715 C94.605799,55.5459567 94.1630951,55.9886606 94.1630951,56.5094965 L93.4599701,56.5094965 C93.1474686,56.5094965 92.8349717,56.1709583 92.5224701,55.4938715 C94.2933123,53.254277 95.1787201,51.4834614 95.1787201,50.1813715 L94.7880951,50.1813715 C92.6005842,53.7230559 91.4026795,55.4938715 91.1943451,55.4938715 C90.7255928,55.4938715 90.4912201,55.1553333 90.4912201,54.4782465 C88.9807959,54.4782465 87.8870569,55.8063583 87.2099701,58.4626215 C87.0016358,58.4626215 86.8974701,58.5667872 86.8974701,58.7751215 L87.5224701,59.1657465 C87.7828881,58.1761583 88.3297576,57.4990817 89.1630951,57.1344965 C89.1630951,56.5094934 89.3974678,56.1969965 89.8662201,56.1969965 L89.8662201,57.1344965 C89.1370498,59.2178403 88.5901803,60.4417864 88.2255951,60.8063715 C87.0797561,61.1709567 86.4026795,61.9261575 86.1943451,63.0719965 C85.4651748,63.0719965 84.8141397,64.0876114 84.2412201,66.1188715 L83.5380951,66.1188715 L83.5380951,65.7282465 C83.5380951,64.9469926 84.2151717,63.4105497 85.5693451,61.1188715 L85.5693451,60.4938715 C81.1422397,67.5772403 78.9287201,71.4313684 78.9287201,72.0563715 C79.1370545,72.4730403 79.2412201,72.7855372 79.2412201,72.9938715 C78.7724678,72.9938715 78.2255983,74.0094864 77.6005951,76.0407465 L71.6630951,85.5719965 L71.6630951,86.2751215 L72.2880951,85.9626215 C72.7568475,86.0147051 72.9912201,86.2230364 72.9912201,86.5876215 C71.3766287,88.9313833 70.1526826,90.259495 69.3193451,90.5719965 C69.3193451,92.0824208 68.66831,93.6188637 67.3662201,95.1813715 C66.8453842,95.1813715 66.5068459,95.9626137 66.3505951,97.5251215 L67.0537201,97.2126215 L67.0537201,97.5251215 C66.2724662,100.598054 64.8401889,102.134497 62.7568451,102.134497 L63.0693451,103.775122 C58.850574,111.170992 53.2256303,119.009455 46.1943451,127.290747 C38.1734717,134.999118 32.4443623,138.853247 29.0068451,138.853247 C25.6734951,140.20742 23.35581,141.431366 22.0537201,142.525122 C21.6370514,142.733456 21.1943475,142.837622 20.7255951,142.837622 L17.7568451,135.571997 L16.7412201,136.196997 L16.4287201,136.196997 L15.1005951,135.259497 C15.1005951,135.8845 14.8662225,136.196997 14.3974701,136.196997 C13.512049,135.988662 13.0693451,135.545958 13.0693451,134.868872 L12.4443451,135.259497 L12.1318451,135.259497 C12.1318451,134.946995 11.1422717,134.374084 9.16309513,133.540747 C9.16309513,133.332412 9.0328881,133.228247 8.77247013,133.228247 L7.83497013,133.931372 C7.41830138,133.514703 7.0797631,132.186591 6.81934513,129.946997 C6.45475998,129.946997 6.24642873,129.400127 6.19434513,128.306372 L5.80372013,128.306372 L5.80372013,128.931372 L5.17872013,128.931372 C4.97038576,125.962607 4.86622013,123.749087 4.86622013,122.290747 C4.86622013,113.019867 5.95995919,99.7908325 8.14747013,82.6032465 L15.1005951,29.7126215 C15.1005951,24.5563458 17.4182803,19.4782715 22.0537201,14.4782465 C22.4703889,14.4782465 25.4391092,11.8220231 30.9599701,6.50949653 C31.5849733,6.50949653 33.0172506,5.41575747 35.2568451,3.22824653 L35.2568451,3.22824653 Z M68.6943451,47.2126215 L68.6943451,47.9157465 C69.1110139,47.9157465 69.3193451,47.6813739 69.3193451,47.2126215 L69.3193451,46.5876215 C68.9026764,46.6397051 68.6943451,46.8480364 68.6943451,47.2126215 L68.6943451,47.2126215 Z M67.6787201,49.2438715 L67.6787201,50.1813715 L68.3818451,50.1813715 L68.3818451,49.8688715 C68.3818451,49.4522028 68.1474725,49.2438715 67.6787201,49.2438715 L67.6787201,49.2438715 Z M92.2099701,49.2438715 C92.2099701,50.0251254 91.9755975,50.6761606 91.5068451,51.1969965 L91.5068451,51.8219965 L91.8193451,51.8219965 C92.0797631,51.8219965 92.522467,51.275127 93.1474701,50.1813715 C92.9391358,49.7647028 92.8349701,49.4522059 92.8349701,49.2438715 L92.2099701,49.2438715 Z M66.0380951,50.1813715 L65.7255951,50.8844965 L65.7255951,51.1969965 L66.6630951,51.1969965 L66.6630951,50.8844965 C66.6630951,50.4157442 66.4547639,50.1813715 66.0380951,50.1813715 L66.0380951,50.1813715 Z M82.6005951,58.4626215 L82.6005951,58.7751215 C83.2255983,58.7751215 83.5380951,59.0094942 83.5380951,59.4782465 L83.5380951,60.1032465 C83.5380951,60.4678317 82.7828944,61.2490739 81.2724701,62.4469965 L80.9599701,62.4469965 L80.9599701,61.8219965 C81.4808061,60.6761575 82.0276756,60.1032465 82.6005951,60.1032465 L82.6005951,59.4782465 L81.8974701,59.4782465 C81.5849686,59.4782465 81.038099,60.46782 80.2568451,62.4469965 C80.6214303,62.4469965 81.0641342,62.6553278 81.5849701,63.0719965 C83.3558123,61.9261575 84.3453858,60.6240872 84.5537201,59.1657465 L84.8662201,59.1657465 C84.9703873,59.5824153 85.20476,59.7907465 85.5693451,59.7907465 C85.9860139,58.0719879 86.1943451,56.7438762 86.1943451,55.8063715 C85.7776764,55.8063715 85.5693451,55.5980403 85.5693451,55.1813715 C85.8818467,53.8271981 86.4287162,53.1501215 87.2099701,53.1501215 L87.2099701,52.2126215 L86.8974701,52.2126215 C86.7412194,52.2126215 85.308942,54.295934 82.6005951,58.4626215 L82.6005951,58.4626215 Z M92.2099701,56.8219965 L92.8349701,57.8376215 C92.8349701,57.9417887 92.2881006,58.4886583 91.1943451,59.4782465 C91.4026795,59.4782465 91.5068451,59.5824122 91.5068451,59.7907465 L92.2099701,59.4782465 L92.5224701,59.4782465 C91.7412162,61.4053395 90.5172701,63.1761551 88.8505951,64.7907465 C88.5380936,64.7907465 88.2255967,64.3480426 87.9130951,63.4626215 C88.7985162,60.8584418 90.2307936,58.6449223 92.2099701,56.8219965 L92.2099701,56.8219965 Z M83.2255951,66.7438715 C83.2255951,67.0563731 82.9130983,67.3949114 82.2880951,67.7594965 L81.8974701,67.7594965 L81.8974701,67.0563715 C82.0016373,67.0563715 82.4443412,66.9522059 83.2255951,66.7438715 L83.2255951,66.7438715 Z M84.8662201,67.7594965 L85.2568451,67.7594965 L85.2568451,68.0719965 C85.2568451,68.3844981 84.9183069,68.7230364 84.2412201,69.0876215 L83.9287201,69.0876215 C84.2412217,68.2022004 84.5537186,67.7594965 84.8662201,67.7594965 L84.8662201,67.7594965 Z M82.2880951,72.0563715 L82.2880951,72.6813715 C82.2880951,73.1501239 82.0537225,73.3844965 81.5849701,73.3844965 L81.5849701,72.6813715 C81.6370537,72.2647028 81.8714264,72.0563715 82.2880951,72.0563715 L82.2880951,72.0563715 Z M80.9599701,74.0094965 L80.9599701,74.3219965 C80.9599701,74.7907489 80.7255975,75.0251215 80.2568451,75.0251215 L79.9443451,75.0251215 C79.9443451,74.71262 80.2828834,74.3740817 80.9599701,74.0094965 L80.9599701,74.0094965 Z M78.3037201,77.3688715 L78.3037201,77.6813715 C78.3037201,78.0980403 78.0693475,78.3063715 77.6005951,78.3063715 L77.6005951,77.9938715 C77.7047623,77.5772028 77.939135,77.3688715 78.3037201,77.3688715 L78.3037201,77.3688715 Z M76.9755951,79.0094965 L77.2880951,79.0094965 L77.2880951,79.6344965 C76.8714264,80.2074161 76.6630951,80.65012 76.6630951,80.9626215 L75.9599701,80.9626215 C76.1162209,79.6605317 76.4547592,79.0094965 76.9755951,79.0094965 L76.9755951,79.0094965 Z" id="V" fill="#00D8FF" transform="translate(54.163095, 73.032934) rotate(3.000000) translate(-54.163095, -73.032934) "></path>
                <path d="M107.684493,49.5106706 C108.361579,49.5106706 111.720921,49.7450433 117.762618,50.2137956 C125.262655,50.0054613 130.809475,49.9012956 134.403243,49.9012956 C140.757441,49.9012956 152.996902,53.1043886 171.121993,59.5106706 L174.481368,60.2919206 L174.481368,60.9950456 L173.387618,60.9950456 C173.075116,60.9950456 171.720963,60.760673 169.325118,60.2919206 L168.934493,60.2919206 C168.934493,60.6044222 171.278219,61.5939956 175.965743,63.2606706 C176.486579,63.3127542 176.746993,63.5471269 176.746993,63.9637956 C176.746993,64.4846316 176.356372,64.7450456 175.575118,64.7450456 C175.366783,64.7450456 174.37721,64.6148386 172.606368,64.3544206 L172.293868,64.3544206 L172.293868,64.7450456 C174.741797,65.4221324 175.965743,66.0210847 175.965743,66.5419206 L175.965743,67.3231706 C174.611569,67.5835886 173.621996,67.7137956 172.996993,67.7137956 C172.52824,67.4533777 172.163661,67.3231706 171.903243,67.3231706 C174.299088,69.5627652 175.653241,70.6825456 175.965743,70.6825456 C175.49699,71.4637996 175.262618,72.0627519 175.262618,72.4794206 L175.575118,74.7450456 C175.106365,74.7971292 174.871993,75.0315019 174.871993,75.4481706 L175.262618,77.3231706 C174.012611,78.6773441 173.387618,79.5367105 173.387618,79.9012956 C173.179283,79.9012956 172.918869,80.3960824 172.606368,81.3856706 C173.127204,82.2190081 173.387618,82.9742089 173.387618,83.6512956 C171.720943,86.6200605 170.601162,88.2346277 170.028243,88.4950456 L169.637618,88.4950456 C163.960506,87.2450394 160.88762,86.6200456 160.418868,86.6200456 C153.960502,87.2971324 150.731368,88.1564988 150.731368,89.1981706 C147.033432,98.2086324 142.450145,106.255427 136.981368,113.338796 C134.220937,118.599239 129.898064,124.771052 124.012618,131.854421 C121.200104,134.4586 116.382443,139.771047 109.559493,147.791921 C105.861557,151.021103 104.012618,152.765878 104.012618,153.026296 L104.012618,153.416921 C108.804308,154.406509 112.502188,154.901296 115.106368,154.901296 L115.887618,154.901296 C116.148036,154.901296 116.278243,155.005461 116.278243,155.213796 L116.981368,154.901296 L119.559493,154.901296 L121.434493,154.510671 L121.825118,155.213796 L121.825118,155.604421 L121.434493,155.604421 C121.174075,155.604421 121.043868,155.474214 121.043868,155.213796 L119.246993,155.604421 L109.168868,155.604421 L108.465743,155.213796 L108.075118,155.995046 C111.043882,156.255464 112.528243,156.489836 112.528243,156.698171 C112.788661,156.698171 112.918868,156.594005 112.918868,156.385671 L116.590743,156.698171 L125.496993,156.698171 C126.017829,156.802338 126.278243,157.062752 126.278243,157.479421 L125.496993,157.870046 L124.793868,157.479421 C121.773019,157.948173 120.028245,158.312753 119.559493,158.573171 L117.371993,158.182546 L115.496993,158.573171 L115.496993,158.963796 C119.247011,158.963796 121.851152,159.198168 123.309493,159.666921 L123.309493,160.448171 C122.319904,160.448171 121.825118,160.81275 121.825118,161.541921 L121.825118,161.932546 L115.496993,161.932546 L115.496993,162.323171 L117.371993,162.635671 L118.856368,162.635671 L118.856368,163.416921 L121.825118,163.416921 C122.29387,163.469004 122.528243,163.703377 122.528243,164.120046 L122.215743,164.901296 L122.528243,164.901296 L122.215743,165.604421 L122.215743,166.385671 L122.918868,166.385671 C122.918868,167.166925 122.424081,168.651285 121.434493,170.838796 C121.955329,170.890879 122.215743,171.125252 122.215743,171.541921 L122.215743,171.932546 C120.913653,172.817967 120.028245,174.302327 119.559493,176.385671 C120.080329,176.489838 120.340743,176.750252 120.340743,177.166921 L120.340743,177.479421 L119.246993,178.963796 C119.455327,179.432548 119.559493,179.823169 119.559493,180.135671 L118.465743,182.323171 C115.549061,182.062753 113.439707,181.932546 112.137618,181.932546 L109.950118,181.932546 L88.3876176,183.807546 C80.262577,183.338793 73.9605567,182.609634 69.4813676,181.620046 C68.7001137,182.088798 67.9709543,182.323171 67.2938676,182.323171 C64.7938551,182.323171 63.5438676,179.35445 63.5438676,173.416921 L62.4501176,158.573171 C62.4501176,158.312753 62.5803246,158.182546 62.8407426,158.182546 C62.5803246,157.713793 62.4501176,157.349214 62.4501176,157.088796 C62.7626192,152.870025 63.2574059,150.760671 63.9344926,150.760671 L72.0594926,150.760671 L73.9344926,151.151296 C77.5803442,143.442924 84.6375653,132.81803 95.1063676,119.276296 C112.189786,96.9845175 121.226154,84.6148496 122.215743,82.1669206 C119.403229,80.9169144 116.174094,80.057548 112.528243,79.5887956 L112.528243,79.1981706 C112.267825,79.1981706 112.137618,79.3283777 112.137618,79.5887956 C107.450094,79.5887956 105.106368,78.4690152 105.106368,76.2294206 C105.106368,73.6773246 104.871995,71.0731839 104.403243,68.4169206 L104.715743,67.7137956 C104.715743,67.4533777 104.611577,67.3231706 104.403243,67.3231706 L105.106368,63.2606706 C104.84595,60.9169089 104.715743,58.677348 104.715743,56.5419206 L104.715743,55.0575456 C106.017832,51.4637777 107.007406,49.6148378 107.684493,49.5106706 L107.684493,49.5106706 Z" id="I" fill="#00D8FF" transform="translate(119.598555, 116.659108) rotate(-1.000000) translate(-119.598555, -116.659108) "></path>
                <path d="M202.558606,115.654871 C226.256641,117.738215 244.746039,125.081891 258.027356,137.686121 C266.569065,147.217419 262.374676,151.931299 262.114258,155.264649 C263.937184,158.181331 262.478843,162.453425 262.114258,166.307611 C261.851401,169.359672 259.989149,172.532187 260.719132,175.215928 C261.499442,178.084692 264.803889,180.438948 262.114258,182.904553 C258.345918,186.359019 255.2542,190.274167 249.042981,192.920496 C247.636724,193.962168 246.569026,194.430913 245.839856,194.326746 L245.761731,195.029871 L246.464856,195.107996 L246.386731,195.811121 L244.746106,195.264246 C243.964852,195.212162 241.569042,196.27986 237.558606,198.467371 C232.298163,200.967383 228.652366,202.139247 226.621106,201.982996 L220.917981,204.561121 C220.917981,204.300703 220.813815,204.170496 220.605481,204.170496 C220.397146,204.535081 214.980534,206.019441 204.355481,208.623621 C198.053366,209.665293 189.043039,210.576742 177.324231,211.357996 C176.334642,211.410081 173.912792,211.644454 170.058606,211.748621 C169.433602,211.85279 167.71487,212.03508 164.902356,211.982996 L164.199231,211.982996 L162.167981,211.748621 C159.042965,211.488203 157.011735,212.477776 156.074231,214.717371 C152.167961,220.290315 145.970106,226.826708 137.480481,234.326746 C137.428397,234.847582 134.876339,237.842344 129.824231,243.311121 C129.772147,243.519455 129.876313,243.649662 130.136731,243.701746 L129.667981,245.342371 C130.084649,248.154885 130.266939,249.899659 130.214856,250.576746 L128.574231,249.404871 L128.496106,250.732996 L127.792981,250.654871 C127.324228,250.654871 127.115897,250.420498 127.167981,249.951746 L126.464856,250.264246 C124.667974,248.259028 123.053406,247.087165 121.230481,246.670496 C120.345059,245.889242 119.511734,244.899669 118.730481,243.701746 C116.490886,243.128826 115.44923,242.113212 115.605481,240.654871 C115.188813,241.331958 114.928399,241.644455 114.511731,241.592371 C113.626309,241.384037 112.871109,239.509055 112.246106,235.967371 L110.917981,235.498621 L110.839856,236.514246 L110.136731,236.436121 L110.292981,234.404871 L110.136731,232.295496 C110.70965,231.04549 111.07423,229.587171 111.230481,227.920496 L110.527356,227.842371 C110.475272,228.571541 110.319024,228.91008 110.058606,228.857996 C110.058606,229.118414 110.162771,229.248621 110.371106,229.248621 L108.886731,234.639246 C109.095065,235.055915 109.173189,235.394453 109.121106,235.654871 C109.173191,236.852794 109.329439,237.660077 109.277356,238.076746 L108.261731,237.998621 C108.001313,235.967361 107.923188,234.352794 108.027356,233.154871 C108.339857,229.613187 110.449211,223.623663 114.355481,215.186121 C119.928425,199.977712 136.048056,175.733162 162.714856,142.451746 L162.089856,142.061121 C157.558583,141.436118 154.147159,141.019455 151.855481,140.811121 C150.449224,140.65487 147.897166,140.993408 144.199231,141.826746 L143.574231,140.732996 C143.782565,138.701736 145.553381,136.800713 148.886731,135.029871 C158.209694,126.74858 164.459631,122.139251 167.636731,121.201746 C174.199263,116.04547 185.136654,114.144447 200.449231,115.498621 L202.558606,115.654871 Z M191.074231,148.389246 C191.282565,148.805915 191.360689,149.144453 191.308606,149.404871 C190.423184,149.352787 188.417996,153.988158 185.292981,163.311121 C176.699188,182.477883 171.959652,192.03508 171.074231,191.982996 L169.824231,194.951746 L170.136731,194.951746 C194.563936,190.889226 212.923127,186.878849 225.214856,182.920496 C238.18367,178.701725 244.954436,173.128864 245.527356,166.201746 C246.204442,158.493374 239.511801,152.503851 225.449231,148.232996 C221.699212,147.920494 218.548202,147.425708 215.996106,146.748621 C214.694016,146.644454 213.886732,146.696537 213.574231,146.904871 C213.365896,146.852787 212.68882,146.670497 211.542981,146.357996 C198.574166,145.212157 192.011731,145.550695 191.855481,147.373621 C191.647146,147.373621 191.386732,147.712159 191.074231,148.389246 L191.074231,148.389246 Z" id="P" fill="#00D8FF" transform="translate(185.677220, 182.904556) rotate(-4.000000) translate(-185.677220, -182.904556) "></path>
            </g>
        </g>
    </g>
</svg>