<?xml version="1.0" encoding="UTF-8" standalone="no"?>
<svg width="280px" height="281px" viewBox="0 0 280 281" version="1.1" xmlns="http://www.w3.org/2000/svg" xmlns:xlink="http://www.w3.org/1999/xlink">
    <!-- Generator: Sketch 3.7.2 (28276) - http://www.bohemiancoding.com/sketch -->
    <title>rwr-vip-svg copy 17</title>
    <desc>Created with Sketch.</desc>
    <defs>
        <rect id="path-1" x="0" y="0" width="254.4" height="255.363636" rx="40"></rect>
        <mask id="mask-3" maskContentUnits="userSpaceOnUse" maskUnits="objectBoundingBox" x="-12.5" y="-12.5" width="279.4" height="280.363636">
            <rect x="-12.5" y="-12.5" width="279.4" height="280.363636" fill="white"></rect>
            <use xlink:href="#path-1" fill="black"></use>
        </mask>
    </defs>
    <g id="Page-1" stroke="none" stroke-width="1" fill="none" fill-rule="evenodd">
        <g id="Artboard-11" transform="translate(-6265.000000, -4055.000000)">
            <g id="rwr-vip-svg-copy-17" transform="translate(6278.000000, 4068.000000)">
                <g id="rwr-logo-vector">
                    <mask id="mask-2" fill="white">
                        <use xlink:href="#path-1"></use>
                    </mask>
                    <g id="Rectangle-18">
                        <use fill="#222222" fill-rule="evenodd" xlink:href="#path-1"></use>
                        <use stroke="#00D8FF" mask="url(#mask-3)" stroke-width="25" xlink:href="#path-1"></use>
                    </g>
                    <g id="react-logo-official" mask="url(#mask-2)">
                        <g transform="translate(195.315291, 13.499999)">
                            <ellipse id="Oval" stroke="none" fill="#00D8FF" fill-rule="evenodd" cx="24.1101166" cy="21.5724666" rx="4.46131099" ry="4.4551284"></ellipse>
                            <path d="M24.1101166,12.514259 C30.1000315,12.514259 35.6645092,13.3725686 39.8600997,14.814955 C44.915191,16.5527987 48.0232664,19.1871386 48.0232664,21.5724666 C48.0232664,24.0582341 44.72924,26.8566874 39.300824,28.6527878 C35.1966527,30.0107197 29.7961605,30.71948 24.1101166,30.71948 C18.2804521,30.71948 12.7600833,30.0541458 8.61064698,28.6377796 C3.35973367,26.8454978 0.196966803,24.0107229 0.196966803,21.5724666 C0.196966803,19.2064983 3.16453408,16.5925838 8.14857088,14.8573154 C12.359813,13.3912179 18.0616862,12.514259 24.1101166,12.514259 L24.1101166,12.514259 Z" id="Shape" stroke="#00D8FF" stroke-width="2.5" fill="none"></path>
                            <path d="M16.2138265,17.0694718 C19.206205,11.8878218 22.7306469,7.50293894 26.0778529,4.59401105 C30.110792,1.08919518 33.9487093,-0.283478479 36.0179138,0.90811984 C38.174269,2.14989352 38.9563123,6.39757121 37.802456,11.9907479 C36.9300606,16.21951 34.8469831,21.2453942 32.0064067,26.1642673 C29.0940645,31.20738 25.7591307,35.6504308 22.4574564,38.5324504 C18.2794738,42.1795335 14.2403987,43.4992788 12.1252177,42.2812163 C10.0728208,41.099209 9.28784281,37.2262924 10.2724669,32.0478395 C11.1043995,27.6723701 13.1921902,22.3018299 16.2138265,17.0694718 L16.2138265,17.0694718 Z" id="Shape" stroke="#00D8FF" stroke-width="2.5" fill="none"></path>
                            <path d="M16.2213855,26.1774106 C13.2203808,21.0007338 11.1763432,15.7616264 10.3243126,11.4129764 C9.29771395,6.17351378 10.0235541,2.1674771 12.0908021,0.972415352 C14.245023,-0.272999376 18.320737,1.17169592 22.5968974,4.96335502 C25.8300072,7.83001128 29.149912,12.1421621 31.9987588,17.0563285 C34.9195493,22.0945568 37.1087193,27.1987679 37.9602164,31.4945784 C39.0377715,36.9306574 38.1655539,41.0842008 36.0524183,42.3058155 C34.0019779,43.4911974 30.2498772,42.2361917 26.2489527,38.7980691 C22.8684871,35.8931374 19.2518257,31.4047068 16.2213855,26.1774106 L16.2213855,26.1774106 Z" id="Shape" stroke="#00D8FF" stroke-width="2.5" fill="none"></path>
                        </g>
                    </g>
                    <text id="VIP" mask="url(#mask-2)" font-family="Monaco" font-size="135" font-weight="normal" letter-spacing="-1.11762297" fill="#00D8FF">
                        <tspan x="9" y="180">VIP</tspan>
                    </text>
                </g>
            </g>
        </g>
    </g>
</svg>