<?xml version="1.0" encoding="UTF-8" standalone="no"?>
<svg width="51px" height="51px" viewBox="0 0 51 51" version="1.1" xmlns="http://www.w3.org/2000/svg" xmlns:xlink="http://www.w3.org/1999/xlink">
    <!-- Generator: Sketch 3.7.2 (28276) - http://www.bohemiancoding.com/sketch -->
    <title>rwr-rounded-logo</title>
    <desc>Created with Sketch.</desc>
    <defs>
        <rect id="path-1" x="0" y="0" width="51" height="51" rx="8"></rect>
    </defs>
    <g id="Page-1" stroke="none" stroke-width="1" fill="none" fill-rule="evenodd">
        <g id="Desktop-HD" transform="translate(-13.000000, -12.000000)">
            <g id="rwr-rounded-logo" transform="translate(13.000000, 12.000000)">
                <mask id="mask-2" fill="white">
                    <use xlink:href="#path-1"></use>
                </mask>
                <use id="Rectangle-38" fill="#222222" xlink:href="#path-1"></use>
                <g id="rwr-logo-vector" mask="url(#mask-2)">
                    <rect id="Rectangle-18" fill="#222222" x="0" y="0" width="50.88" height="51.0727273"></rect>
                    <path d="M11.4531676,16.822178 C11.4952199,16.878202 11.5162458,16.941228 11.5162458,17.011258 C11.5162458,17.3333959 11.1798323,17.5784971 10.5069953,17.7465691 C9.76407113,17.1723233 8.83893413,16.2899588 7.73155658,15.0994492 C6.49802209,13.7688797 5.57989371,12.8444979 4.9771439,12.3262761 C4.93509158,12.6904319 4.85799684,13.6428253 4.74585734,15.1834848 C4.67577015,16.3459824 4.5496151,17.2703642 4.36738842,17.956658 C4.33935354,17.956658 4.25174587,17.9916724 4.10456278,18.0617024 C3.95737969,18.1317324 3.83472895,18.1527411 3.73660689,18.1247291 C3.11983964,17.9846691 2.81146064,17.5574927 2.81146064,16.8431869 C2.81146064,16.633097 2.8394951,16.3529813 2.89556485,16.0028314 C2.9516346,15.5966575 2.98667767,15.3445534 3.0006951,15.2465114 C3.05676485,14.4341637 3.09180792,13.4677646 3.10582536,12.3472849 L3.10582536,10.0573162 C3.10582536,8.15250082 3.21095456,6.54883843 3.42121612,5.24628087 C3.5613905,4.37790917 4.38139829,3.9787443 5.88126409,4.04877427 C6.63820571,4.07678626 7.29701539,4.45494246 7.85771288,5.18325421 C8.37635807,5.85554198 8.63567677,6.58384281 8.63567677,7.36817854 C8.63567677,8.02646031 8.3903753,8.68473221 7.89976499,9.34301399 C7.47924186,9.93126579 6.96060446,10.3934567 6.34383721,10.7296006 C6.09152334,10.8696605 5.96536829,11.0237242 5.96536829,11.1917961 C5.96536829,11.373874 6.11254918,11.5909637 6.40691537,11.8430716 C6.63119436,12.0251496 6.85547,12.2072248 7.079749,12.3893027 C7.09376643,12.4033087 7.86471393,13.103598 9.39261461,14.4901915 C10.3598178,15.3585632 11.0466619,16.1358843 11.4531676,16.822178 L11.4531676,16.822178 Z M7.01667084,7.38918743 C7.05872316,7.13707951 7.07274038,6.91298695 7.05872295,6.71690302 C7.01667063,6.42277712 6.8940199,6.1566672 6.69076705,5.91856528 C6.48751421,5.68046336 6.16161368,5.56141419 5.71305568,5.56141419 C5.37663718,5.56141419 5.16637878,5.66645758 5.08227415,5.87654751 C5.01218696,6.22669739 4.9771439,6.62586226 4.9771439,7.07405411 C4.9771439,7.25613205 4.99816974,7.72532585 5.04022205,8.48164959 C5.06825692,9.05589539 5.06825692,9.52508919 5.04022205,9.88924507 C6.20366936,9.02087337 6.86247903,8.18752915 7.01667084,7.38918743 L7.01667084,7.38918743 Z M17.8293176,6.17067194 C17.3106724,6.38076186 16.5467335,6.6258631 15.537478,6.90598301 C14.5282225,7.18610291 13.7642836,7.43120415 13.2456385,7.64129408 C13.1194815,8.00544995 13.0283695,8.81778549 12.9722998,10.0783251 C13.1965788,10.162361 13.4558975,10.2043784 13.7502637,10.2043784 C13.9605252,10.2043784 14.2899301,10.1693639 14.7384881,10.0993339 C15.1870461,10.029304 15.5164509,9.99428951 15.7267125,9.99428951 C16.1192007,9.99428951 16.4556142,10.0783242 16.7359629,10.2463962 C16.932207,10.5265161 17.0303276,10.7085913 17.0303276,10.7926272 C17.0303276,10.8906692 16.9812673,10.967701 16.8831453,11.023725 C16.8551104,11.037731 16.7569898,11.1357715 16.5887806,11.3178494 C16.4766411,11.4439034 16.3364688,11.4999265 16.1682595,11.4859205 C15.8738934,11.5559505 15.3342301,11.5979679 14.5492536,11.6119739 C13.8904341,11.6259799 13.364788,11.7100146 12.9722998,11.8640805 C12.7059685,12.9005242 12.5728048,13.7198626 12.5728048,14.3221204 C12.5728048,14.7282942 12.6288737,15.0504273 12.7410132,15.2885292 C13.3998328,15.7507271 14.5422368,15.9468081 16.1682595,15.8767781 C16.280399,15.8767781 16.3995455,15.8242564 16.5257024,15.7192114 C16.6518593,15.6141665 16.7569885,15.5616448 16.8410932,15.5616448 C17.2335814,15.4776088 17.4929001,15.7717303 17.6190571,16.4440181 C17.6611094,16.668114 17.622562,16.8746993 17.5034138,17.0637802 C17.3842656,17.2528612 17.2125545,17.3544031 16.9882755,17.3684091 C15.2921656,17.4244331 13.8203568,17.2913781 12.5728048,16.9692402 C12.1803166,16.8711983 11.8228773,16.6541086 11.5004762,16.3179647 C11.1780752,15.9818208 10.9958512,15.6036646 10.9537989,15.1834848 C10.827642,13.9649632 10.827642,12.872512 10.9537989,11.9060983 C10.5613106,11.6399844 10.3860953,11.3808774 10.4281476,11.1287694 C10.4421651,11.0027155 10.5507986,10.8871678 10.7540514,10.7821228 C10.9573043,10.6770778 11.0729464,10.568533 11.1009813,10.456485 C11.1290161,10.3444371 11.185085,9.67916228 11.2691897,8.4606407 C10.4842132,8.30657475 10.0987394,8.01245327 10.1127569,7.57826742 C10.1267743,7.17209356 10.3720758,6.8499605 10.8486686,6.61185858 C11.2972266,6.42978064 11.7457779,6.24770544 12.1943359,6.0656275 C12.7269985,5.79951359 13.3858082,5.56141524 14.1707847,5.35132531 C14.8436217,5.16924738 15.5234572,4.99417506 16.2103116,4.82610312 C16.2803988,4.81209712 16.3645022,4.80509423 16.4626243,4.80509423 C16.8410951,4.80509423 17.2826377,4.95215498 17.7872655,5.24628087 C17.8012829,5.30230486 17.836326,5.40734824 17.8923957,5.56141419 C17.9484655,5.71548014 17.9764999,5.82752642 17.9764999,5.8975564 C17.9764999,6.00960436 17.9274396,6.10064196 17.8293176,6.17067194 L17.8293176,6.17067194 Z M26.0978121,15.6666892 C26.1819168,15.8907851 26.2239684,16.0868661 26.2239684,16.2549381 C26.2239684,16.535058 26.104822,16.7801592 25.8665256,16.9902491 C25.6282291,17.2003391 25.467031,17.2983796 25.3829264,17.2843736 C24.696072,17.1583196 24.2615379,16.6050911 24.0793112,15.6246714 C23.8830671,14.5602158 23.6517829,13.6708484 23.3854515,12.9565427 C22.9088587,12.9985607 22.432273,13.040578 21.9556801,13.082596 C21.409,13.152626 20.9814746,13.3206954 20.673091,13.5868093 C20.5188992,14.0209952 20.3156494,14.7913133 20.0633355,15.897787 C19.8250391,16.9202246 19.5937548,17.6975457 19.3694758,18.2297735 C19.2573363,18.4818814 19.0190434,18.5519103 18.6545901,18.4398624 C18.1920146,18.2857964 17.9467132,18.0757097 17.9186783,17.8095958 C17.876626,17.2773679 18.0308155,16.5630729 18.3812514,15.6666892 C18.8017745,14.6442516 19.0330588,13.9159507 19.0751111,13.4817649 C19.0891285,13.3557109 18.9980166,13.2156531 18.8017724,13.0615871 C18.6055283,12.9075212 18.5074077,12.788472 18.5074077,12.704436 C18.5074077,12.6344061 18.5389465,12.5608757 18.6020249,12.4838427 C18.6651034,12.4068097 18.8122843,12.3437837 19.043572,12.2947627 C19.2748597,12.2457417 19.4045191,12.1722114 19.432554,12.0741694 C19.6848678,11.3738696 20.0843588,10.0713316 20.6310389,8.16651627 C21.0936143,6.51380884 21.5071225,5.24628529 21.8715759,4.36390759 C21.9556805,4.16782366 22.1308958,4.06978316 22.3972272,4.06978316 C22.5934713,4.06978316 22.7686866,4.13280919 22.9228784,4.25886315 C23.3153667,4.59500703 23.5676768,5.0992153 23.6798163,5.77150307 C23.7639209,6.34574887 23.8410156,6.91998606 23.9111028,7.49423187 C24.6119747,10.7996467 25.3408705,13.5237719 26.0978121,15.6666892 L26.0978121,15.6666892 Z M23.0280087,11.6539916 C22.9859564,11.1357698 22.8948444,10.5545297 22.75467,9.91025396 C22.6144956,9.35001415 22.481332,8.78978274 22.355175,8.22954294 C21.9346519,9.39204054 21.570204,10.5545207 21.2618204,11.7170183 C21.4860994,11.6750003 22.0748229,11.6539916 23.0280087,11.6539916 L23.0280087,11.6539916 Z M33.1678218,14.2380848 C33.1397869,14.2520908 32.3197791,14.8333309 30.7077738,15.9818225 C29.7686055,16.6541103 28.9345805,17.1513157 28.2056737,17.4734536 C28.1215691,17.5154715 28.0374658,17.5364802 27.9533611,17.5364802 C27.757117,17.5364802 27.574893,17.4104281 27.4066838,17.1583202 C27.1543699,16.8221764 27.0212063,16.647104 27.0071888,16.633098 C26.979154,15.4005705 27.0562487,13.6848618 27.2384754,11.4859205 C27.448737,9.14691934 27.5538662,7.45922223 27.5538662,6.42277859 C27.5538662,5.70847283 27.5258317,5.03619515 27.469762,4.40592536 C27.6519886,4.22384743 27.8832729,4.13280982 28.1636216,4.13280982 C28.6962843,4.13280982 29.0046633,4.32889082 29.0887679,4.72105868 C29.1308202,5.86955029 29.0817599,7.58876041 28.9415855,9.87874063 C28.8014111,12.1687208 28.7453422,13.887931 28.7733771,15.0364226 C29.1658654,14.8683506 29.6774942,14.5742291 30.3082788,14.1540493 C30.9951333,13.6778454 31.4927448,13.3627153 31.8011285,13.2086493 C31.8712156,13.2086493 31.9938664,13.1946436 32.1690844,13.1666316 C32.3443023,13.1386196 32.4739617,13.1246138 32.5580663,13.1246138 C32.838415,13.1246138 33.0416648,13.2366601 33.1678218,13.460756 C33.336031,13.7688879 33.336031,14.0279949 33.1678218,14.2380848 L33.1678218,14.2380848 Z" id="Real" fill="#FFFFFF" transform="translate(18.052720, 11.266256) rotate(-9.000000) translate(-18.052720, -11.266256) "></path>
                    <path d="M12.0978813,19.5318067 C12.4202823,19.6858727 12.5814805,19.9099652 12.5814805,20.2040911 C12.5814805,20.4001751 12.4973771,20.666285 12.3291678,21.0024289 C12.1189063,21.4506207 12.0067685,21.7027248 11.992751,21.7587488 C11.6563325,22.7951925 11.3374406,24.3708433 11.0360657,26.4857486 C10.7346908,28.6006538 10.4298161,30.155296 10.1214325,31.1497216 C10.0373279,31.4298416 9.799035,31.5698994 9.40654675,31.5698994 C9.22432007,31.5698994 9.06312195,31.5348849 8.92294758,31.464855 C8.4043024,31.1987411 8.03284588,30.680527 7.80856688,29.9101973 C7.79454944,29.8401673 7.66138578,29.139878 7.40907191,27.8093085 C7.28291497,27.1090087 7.16376854,26.3596992 7.05162904,25.5613575 C6.85538492,25.9535254 6.59606622,26.9269274 6.27366515,28.4815929 C5.99331641,29.8261684 5.66391157,30.6805213 5.28544076,31.0446772 C5.17330126,31.1567252 4.97706008,31.170731 4.69671133,31.086695 C4.27618821,31.030671 3.99584366,30.7785669 3.85566929,30.330375 C3.77156467,29.9382072 3.6874613,29.5460452 3.60335668,29.1538773 C3.3510428,28.1454457 3.15129732,26.5767977 3.00411422,24.4478865 C2.85693113,22.3189752 2.65718564,20.764333 2.40487177,19.7839134 C2.36281946,19.6158414 2.3838453,19.4547749 2.46794992,19.300709 C2.55205455,19.146643 2.67120098,19.0626083 2.82539279,19.0486023 C2.93753229,19.0205903 3.04967011,19.0065845 3.16180961,19.0065845 C3.55429785,19.0065845 3.85566824,19.1816568 4.0659298,19.5318067 C4.2902088,20.7083103 4.55653611,22.9982562 4.86491974,26.401713 C4.97705924,26.1636111 5.10671859,25.7189274 5.25390168,25.0676486 C5.40108477,24.4163699 5.54476135,23.9436746 5.68493573,23.6495487 C5.81109266,23.1173209 5.93023909,22.5851011 6.04237859,22.0528732 C6.21058784,21.4085975 6.56101852,21.0864644 7.09368114,21.0864644 C7.23385552,21.0864644 7.38804502,21.1074731 7.55625427,21.1494911 C7.5702717,21.233527 7.63334923,21.2825473 7.74548872,21.2965533 C7.85762822,21.3105593 7.92070575,21.331568 7.93472318,21.35958 C8.24310681,22.0458737 8.47439105,22.9632526 8.62858287,24.1117443 C8.8668793,25.7364397 9.01406019,26.6748273 9.07012994,26.9269352 C9.29440894,25.6804016 9.52569318,24.4408897 9.76398962,23.2083621 C10.0583558,21.7657446 10.4368209,20.5892586 10.8993964,19.6788689 C10.9975184,19.496791 11.2007682,19.4057534 11.5091519,19.4057534 C11.7334309,19.4057534 11.929672,19.4477707 12.0978813,19.5318067 L12.0978813,19.5318067 Z M20.8710011,25.8134642 C20.0439723,27.6762615 18.8735338,28.7827185 17.3596505,29.1328684 C17.1774239,29.1748864 16.9951999,29.1958951 16.8129732,29.1958951 C16.0139793,29.1958951 15.2079887,28.7617157 14.3949774,27.893344 C13.8482973,27.3050922 13.5749614,26.541777 13.5749614,25.6033753 C13.5749614,24.5669316 13.8833404,23.4534717 14.5001076,22.2629621 C14.7664389,21.7587463 15.0888351,21.324567 15.467306,20.9604111 C15.9018465,20.5262252 16.3153547,20.3091356 16.707843,20.3091356 C16.932122,20.3091356 17.1423804,20.3931703 17.3386245,20.5612422 C17.5348686,20.7293142 18.0605146,20.9534067 18.9155783,21.2335266 C19.5884153,21.4576226 20.065001,21.8357787 20.3453498,22.3680066 C20.8359601,23.3064082 21.0812616,24.1117409 21.0812616,24.7840287 C21.0812616,25.1621905 21.0111754,25.5053323 20.8710011,25.8134642 L20.8710011,25.8134642 Z M30.3752348,31.1451817 C30.2083558,31.2537198 29.9716602,31.3462714 29.6651469,31.4228372 C28.9222227,30.8485914 27.9970857,29.9662269 26.8897082,28.7757173 C25.6561737,27.4451478 24.7380453,26.520766 24.1352955,26.0025441 C24.0932432,26.3667 24.0161484,27.3190934 23.9040089,28.8597529 C23.8339217,30.0222505 23.7077667,30.9466323 23.52554,31.6329261 C23.4975051,31.6329261 23.4098975,31.6679405 23.2627144,31.7379705 C23.1155313,31.8080005 22.9928805,31.8290092 22.8947585,31.8009972 C22.2779912,31.6609372 21.9696122,31.2337608 21.9696122,30.519455 C21.9696122,30.3093651 21.9976467,30.0292494 22.0537164,29.6790995 C22.1097862,29.2729256 22.1448292,29.0208215 22.1588467,28.9227795 C22.2149164,28.1104318 22.2499595,27.1440327 22.2639769,26.023553 L22.2639769,23.7335843 C22.2639769,21.8287689 22.3691061,20.2251065 22.5793677,18.922549 C22.7195421,18.0541773 23.5395499,17.6550124 25.0394157,17.7250424 C25.7963573,17.7530544 26.455167,18.1312106 27.0158645,18.8595223 C27.5345096,19.5318101 27.7938284,20.2601109 27.7938284,21.0444466 C27.7938284,21.7027284 27.5485269,22.3610003 27.0579166,23.0192821 C26.6373934,23.6075339 26.118756,24.0697248 25.5019888,24.4058687 C25.2496749,24.5459286 25.1235199,24.6999923 25.1235199,24.8680642 C25.1235199,25.0501421 25.2707008,25.2672318 25.5650669,25.5193397 C25.7893459,25.7014177 26.0136216,25.8834929 26.2379006,26.0655708 C26.251918,26.0795768 27.0228655,26.7798661 28.5507662,28.1664596 C28.9785494,28.5505307 29.3514888,28.9167905 29.6695864,29.2652411 C29.6888503,28.1646174 29.7662178,26.7969403 29.90169,25.1621886 C30.1119515,22.8231874 30.2170807,21.1354903 30.2170807,20.0990467 C30.2170807,19.3847409 30.1890463,18.7124632 30.1329765,18.0821935 C30.3152032,17.9001155 30.5464875,17.8090779 30.8268362,17.8090779 C31.3594988,17.8090779 31.6678778,18.0051589 31.7519825,18.3973268 C31.7940348,19.5458184 31.7449745,21.2650285 31.6048001,23.5550087 C31.4646257,25.8449889 31.4085568,27.5641991 31.4365917,28.7126907 C31.8290799,28.5446187 32.3407087,28.2504972 32.9714934,27.8303174 C33.6583478,27.3541135 34.1559594,27.0389834 34.464343,26.8849174 C34.5344302,26.8849174 34.657081,26.8709116 34.8322989,26.8428997 C35.0075169,26.8148877 35.1371762,26.8008819 35.2212809,26.8008819 C35.5016296,26.8008819 35.7048794,26.9129282 35.8310363,27.1370241 C35.9992456,27.445156 35.9992456,27.704263 35.8310363,27.9143529 C35.8030015,27.9283589 34.9829937,28.509599 33.3709884,29.6580906 C32.4318201,30.3303784 31.5977951,30.8275838 30.8688883,31.1497216 C30.7847837,31.1917396 30.7006803,31.2127483 30.6165757,31.2127483 C30.5336238,31.2127483 30.453177,31.1902262 30.3752348,31.1451817 Z M19.188917,24.5109131 C19.0907949,23.4884755 18.817459,22.8792238 18.368901,22.6831399 C18.2988138,22.6551279 18.2357363,22.6411221 18.1796665,22.6411221 C18.0114573,22.6411221 17.8011989,22.78118 17.548885,23.0612999 C17.2685363,23.3834378 17.0512692,23.5725159 16.8970774,23.6285398 C16.7989554,23.6705578 16.6587831,23.6285405 16.4765564,23.5024865 C16.2943297,23.3764325 16.1751833,23.3134065 16.1191135,23.3134065 C16.0770612,23.3134065 16.0420182,23.3274123 16.0139833,23.3554243 C15.523373,23.7756041 15.2780715,24.4268732 15.2780715,25.3092509 C15.2780715,25.9115086 15.4182438,26.4227198 15.6985925,26.8428997 C16.0910808,27.4171455 16.4204856,27.7042641 16.6868169,27.7042641 C17.3035842,27.7042641 17.8993163,27.319105 18.4740312,26.5487752 C19.0207113,25.8204635 19.2590042,25.1411829 19.188917,24.5109131 Z M26.1748224,21.0654555 C26.2168747,20.8133476 26.230892,20.589255 26.2168745,20.3931711 C26.1748222,20.0990452 26.0521715,19.8329353 25.8489186,19.5948334 C25.6456658,19.3567315 25.3197653,19.2376823 24.8712073,19.2376823 C24.5347888,19.2376823 24.3245304,19.3427257 24.2404257,19.5528156 C24.1703385,19.9029655 24.1352955,20.3021304 24.1352955,20.7503222 C24.1352955,20.9324001 24.1563213,21.4015939 24.1983736,22.1579177 C24.2264085,22.7321635 24.2264085,23.2013573 24.1983736,23.5655132 C25.3618209,22.6971415 26.0206306,21.8637973 26.1748224,21.0654555 L26.1748224,21.0654555 Z M42.7538636,25.7084197 C42.6136893,26.0305576 42.4805256,26.3526907 42.3543687,26.6748286 C42.1861594,27.0529904 42.0039355,27.3541148 41.8076913,27.5782107 C41.3731508,28.1244445 40.9386167,28.6636673 40.5040762,29.1958951 C39.985431,29.8401709 39.5158539,30.288356 39.0953308,30.5404639 C38.9551564,30.7085358 38.8009669,30.8836082 38.6327576,31.0656861 C38.4645484,31.247764 38.2963417,31.3388016 38.1281324,31.3388016 C38.0440278,31.3388016 37.9459072,31.317793 37.8337677,31.275775 C37.7216282,31.233757 37.5989775,31.1847367 37.4658118,31.1287128 C37.3326462,31.0726888 37.2380299,30.9816512 37.1819601,30.8555972 C37.1399078,30.2673454 37.118882,29.6370851 37.118882,28.9647973 C37.118882,28.2785036 37.1469164,27.2560812 37.2029862,25.8974997 C37.2590559,24.5389182 37.2870904,23.5164959 37.2870904,22.8302021 C37.2870904,21.9198124 37.2520473,21.0864682 37.1819601,20.3301445 C37.1679427,20.3161385 37.0137532,20.1550719 36.719387,19.84694 C36.5371603,19.6648621 36.4460483,19.4967927 36.4460483,19.3427267 C36.4460483,19.2726968 36.4600656,19.2026678 36.4881004,19.1326379 C36.5581876,18.9645659 36.7123771,18.8665254 36.9506736,18.8385134 C37.1329002,18.8105014 37.3151242,18.7894928 37.4973509,18.7754868 C38.6748156,19.0275947 39.9083316,19.6858666 41.1979359,20.7503222 C41.5343544,21.0304421 41.8076903,21.3245636 42.0179519,21.6326955 C42.6907888,22.6271212 43.0272023,23.5585059 43.0272023,24.4268776 C43.0272023,24.8750694 42.9360903,25.3022459 42.7538636,25.7084197 L42.7538636,25.7084197 Z M41.239988,23.4604687 C41.113831,22.578091 40.3639094,21.80077 38.9902005,21.1284822 C38.8920784,23.4674834 38.864044,25.9465074 38.9060963,28.5656285 C40.4900667,26.982951 41.2820401,25.4773291 41.2820401,24.0487176 C41.2820401,23.8526337 41.2680228,23.6565527 41.239988,23.4604687 L41.239988,23.4604687 Z" id="WORLd" fill="#FFFFFF" transform="translate(22.705524, 24.765103) rotate(-14.000000) translate(-22.705524, -24.765103) "></path>
                    <path d="M20.3646047,43.2138 C20.406657,43.269824 20.4276828,43.33285 20.4276828,43.40288 C20.4276828,43.7250179 20.0912694,43.9701191 19.4184324,44.1381911 C18.6755082,43.5639453 17.7503712,42.6815808 16.6429936,41.4910712 C15.4094591,40.1605017 14.4913308,39.2361198 13.8885809,38.717898 C13.8465286,39.0820539 13.7694339,40.0344473 13.6572944,41.5751068 C13.5872072,42.7376044 13.4610522,43.6619862 13.2788255,44.3482799 C13.2507906,44.3482799 13.1631829,44.3832944 13.0159998,44.4533244 C12.8688167,44.5233544 12.746166,44.544363 12.6480439,44.516351 C12.0312767,44.3762911 11.7228977,43.9491147 11.7228977,43.2348089 C11.7228977,43.024719 11.7509321,42.7446033 11.8070019,42.3944534 C11.8630716,41.9882795 11.8981147,41.7361754 11.9121322,41.6381334 C11.9682019,40.8257857 12.003245,39.8593865 12.0172624,38.7389069 L12.0172624,36.4489381 C12.0172624,34.5441228 12.1223916,32.9404604 12.3326532,31.6379029 C12.4728275,30.7695311 13.2928353,30.3703663 14.7927011,30.4403962 C15.5496428,30.4684082 16.2084524,30.8465644 16.7691499,31.5748762 C17.2877951,32.247164 17.5471138,32.9754648 17.5471138,33.7598005 C17.5471138,34.4180823 17.3018123,35.0763542 16.811202,35.734636 C16.3906789,36.3228878 15.8720415,36.7850787 15.2552743,37.1212226 C15.0029604,37.2612825 14.8768053,37.4153461 14.8768053,37.5834181 C14.8768053,37.765496 15.0239862,37.9825857 15.3183524,38.2346936 C15.5426314,38.4167715 15.766907,38.5988468 15.991186,38.7809247 C16.0052035,38.7949307 16.776151,39.4952199 18.3040517,40.8818135 C19.2712548,41.7501852 19.958099,42.5275062 20.3646047,43.2138 L20.3646047,43.2138 Z M15.9281079,33.7808094 C15.9701602,33.5287015 15.9841774,33.3046089 15.97016,33.108525 C15.9281077,32.8143991 15.8054569,32.5482892 15.6022041,32.3101873 C15.3989513,32.0720853 15.0730507,31.9530362 14.6244927,31.9530362 C14.2880742,31.9530362 14.0778158,32.0580796 13.9937112,32.2681695 C13.923624,32.6183194 13.8885809,33.0174842 13.8885809,33.4656761 C13.8885809,33.647754 13.9096068,34.1169478 13.9516591,34.8732716 C13.979694,35.4475174 13.979694,35.9167112 13.9516591,36.280867 C15.1151064,35.4124953 15.7739161,34.5791511 15.9281079,33.7808094 L15.9281079,33.7808094 Z M26.7407546,32.5622939 C26.2221094,32.7723838 25.4581706,33.0174851 24.4489151,33.297605 C23.4396596,33.5777249 22.6757207,33.8228261 22.1570755,34.0329161 C22.0309186,34.3970719 21.9398066,35.2094075 21.8837368,36.469947 C22.1080158,36.553983 22.3673345,36.5960004 22.6617007,36.5960004 C22.8719623,36.5960004 23.2013671,36.5609859 23.6499251,36.4909559 C24.0984831,36.4209259 24.427888,36.3859115 24.6381495,36.3859115 C25.0306378,36.3859115 25.3670512,36.4699462 25.6474,36.6380181 C25.8436441,36.918138 25.9417647,37.1002132 25.9417647,37.1842492 C25.9417647,37.2822912 25.8927044,37.359323 25.7945823,37.415347 C25.7665475,37.429353 25.6684269,37.5273935 25.5002176,37.7094714 C25.3880781,37.8355254 25.2479058,37.8915485 25.0796966,37.8775425 C24.7853304,37.9475725 24.2456672,37.9895898 23.4606907,38.0035958 C22.8018711,38.0176018 22.2762251,38.1016365 21.8837368,38.2557025 C21.6174055,39.2921461 21.4842419,40.1114846 21.4842419,40.7137424 C21.4842419,41.1199162 21.5403108,41.4420493 21.6524503,41.6801512 C22.3112698,42.142349 23.4536739,42.33843 25.0796966,42.2684001 C25.1918361,42.2684001 25.3109825,42.2158784 25.4371395,42.1108334 C25.5632964,42.0057884 25.6684256,41.9532667 25.7525302,41.9532667 C26.1450185,41.8692308 26.4043372,42.1633523 26.5304941,42.83564 C26.5725464,43.059736 26.533999,43.2663213 26.4148508,43.4554022 C26.2957026,43.6444832 26.1239916,43.7460251 25.8997126,43.7600311 C24.2036027,43.8160551 22.7317938,43.6830001 21.4842419,43.3608622 C21.0917536,43.2628203 20.7343143,43.0457306 20.4119133,42.7095867 C20.0895122,42.3734428 19.9072883,41.9952866 19.8652359,41.5751068 C19.739079,40.3565852 19.739079,39.2641339 19.8652359,38.2977203 C19.4727477,38.0316064 19.2975324,37.7724993 19.3395847,37.5203914 C19.3536021,37.3943375 19.4622356,37.2787897 19.6654885,37.1737448 C19.8687413,37.0686998 19.9843834,36.960155 20.0124183,36.848107 C20.0404532,36.7360591 20.0965221,36.0707843 20.1806267,34.8522627 C19.3956502,34.6981967 19.0101765,34.4040752 19.0241939,33.9698894 C19.0382113,33.5637155 19.2835128,33.2415825 19.7601057,33.0034806 C20.2086637,32.8214026 20.657215,32.6393274 21.105773,32.4572495 C21.6384356,32.1911356 22.2972453,31.9530372 23.0822217,31.7429473 C23.7550587,31.5608694 24.4348943,31.385797 25.1217487,31.2177251 C25.1918359,31.2037191 25.2759392,31.1967162 25.3740613,31.1967162 C25.7525321,31.1967162 26.1940748,31.343777 26.6987025,31.6379029 C26.71272,31.6939268 26.747763,31.7989702 26.8038328,31.9530362 C26.8599025,32.1071021 26.887937,32.2191484 26.887937,32.2891784 C26.887937,32.4012263 26.8388767,32.4922639 26.7407546,32.5622939 L26.7407546,32.5622939 Z M35.0092492,42.0583112 C35.0933538,42.2824071 35.1354055,42.4784881 35.1354055,42.64656 C35.1354055,42.9266799 35.0162591,43.1717812 34.7779626,43.3818711 C34.5396662,43.591961 34.3784681,43.6900015 34.2943634,43.6759955 C33.607509,43.5499416 33.172975,42.9967131 32.9907483,42.0162934 C32.7945042,40.9518378 32.5632199,40.0624704 32.2968886,39.3481647 C31.8202957,39.3901826 31.34371,39.4322 30.8671171,39.474218 C30.3204371,39.544248 29.8929116,39.7123174 29.584528,39.9784313 C29.4303362,40.4126171 29.2270864,41.1829353 28.9747725,42.2894089 C28.7364761,43.3118466 28.5051919,44.0891677 28.2809129,44.6213955 C28.1687734,44.8735034 27.9304805,44.9435323 27.5660271,44.8314844 C27.1034517,44.6774184 26.8581502,44.4673316 26.8301153,44.2012177 C26.788063,43.6689899 26.9422525,42.9546949 27.2926885,42.0583112 C27.7132116,41.0358735 27.9444958,40.3075727 27.9865481,39.8733869 C28.0005656,39.7473329 27.9094536,39.607275 27.7132095,39.4532091 C27.5169654,39.2991432 27.4188448,39.180094 27.4188448,39.096058 C27.4188448,39.026028 27.4503835,38.9524977 27.513462,38.8754647 C27.5765405,38.7984317 27.7237213,38.7354057 27.9550091,38.6863847 C28.1862968,38.6373637 28.3159561,38.5638333 28.343991,38.4657914 C28.5963049,37.7654916 28.9957959,36.4629536 29.5424759,34.5581382 C30.0050514,32.9054308 30.4185596,31.6379073 30.7830129,30.7555296 C30.8671176,30.5594456 31.0423329,30.4614051 31.3086642,30.4614051 C31.5049083,30.4614051 31.6801237,30.5244312 31.8343155,30.6504851 C32.2268037,30.986629 32.4791138,31.4908373 32.5912533,32.163125 C32.6753579,32.7373708 32.7524527,33.311608 32.8225399,33.8858538 C33.5234117,37.1912687 34.2523076,39.9153939 35.0092492,42.0583112 L35.0092492,42.0583112 Z M41.7611285,30.4651085 C41.7629549,30.4433721 41.7638681,30.4211287 41.7638681,30.3983785 C41.7638681,30.1602766 41.7148078,30.0062129 41.6166857,29.9361829 C41.2942846,29.698081 40.9368454,29.5790319 40.5443571,29.5790319 C39.6332237,29.5790319 38.757147,30.0832401 37.9161007,31.0916718 C36.4723047,32.8284152 35.7504175,34.9362858 35.7504175,37.415347 C35.7504175,37.8775448 35.7784519,38.3537415 35.8345217,38.8439514 C36.0027309,40.4266288 36.1218774,41.330002 36.1919645,41.5540979 C36.2900866,41.8622298 36.4407718,42.1878643 36.6440246,42.5310112 C36.8472775,42.874158 37.047023,43.2067954 37.2432671,43.5289333 C38.0282436,44.8034789 38.7571394,45.6368231 39.4299764,46.028991 C39.8084472,46.1830569 40.0887918,46.2740945 40.2710184,46.3021065 C40.4392277,46.3441245 40.5969215,46.2740956 40.7441046,46.0920176 C40.8912877,45.9099397 40.9648781,45.7068558 40.9648781,45.4827599 C40.9648781,45.258664 40.8527403,45.0835916 40.6284613,44.9575377 C40.4181997,44.8735017 40.2079413,44.7824641 39.9976798,44.6844222 C39.493052,44.3902963 39.0655266,43.9000938 38.7150907,43.2138 C38.5749163,42.9336801 38.343632,42.3454371 38.021231,41.4490534 C37.6287427,40.3565858 37.4325016,39.1941056 37.4325016,37.9615781 C37.4325016,35.342457 38.2174663,33.2065747 39.7874193,31.5538673 C39.8132122,31.5257526 39.8460651,31.4982257 39.8859782,31.4712868 C39.9141494,31.5329083 39.9461267,31.6024529 39.9819102,31.6799206 C40.4164508,32.0440765 40.9771399,32.2261517 41.6639943,32.2261517 C41.9583605,32.2261517 42.4910151,32.1701286 43.2619742,32.0580806 C43.9348112,31.9600386 44.4604572,31.9250242 44.838928,31.9530362 C44.8529455,32.9614678 44.7968765,34.4250724 44.6707196,36.3438937 C44.5445627,38.346751 44.4814852,39.8103556 44.4814852,40.7347513 C44.4814852,41.3089971 44.4955024,41.8552227 44.5235373,42.3734445 C44.5515721,42.7796184 44.698753,43.1472702 44.9650843,43.4764111 C45.2314156,43.805552 45.5678291,43.9771229 45.9743348,43.9911289 C46.1845963,44.0051348 46.3247686,43.9000915 46.3948558,43.6759955 C46.4369081,43.5359356 46.4509253,43.3328517 46.4369079,43.0667378 C46.408873,42.2123721 46.3948558,41.3440134 46.3948558,40.4616357 C46.3948558,38.1366405 46.5350281,35.2304401 46.8153768,31.7429473 C49.0721842,31.3787914 50.6561309,31.0846699 51.5672643,30.860574 C51.9177003,30.776538 52.1559931,30.4824165 52.2821501,29.9782007 C52.2821501,29.7260928 52.0929175,29.6000407 51.7144467,29.6000407 C51.756499,29.3899508 51.6513698,29.2849074 51.3990559,29.2849074 C51.0626374,29.2428894 50.6421206,29.2849068 50.1374929,29.4109607 C49.4506384,29.5930387 49.023113,29.6910792 48.8549038,29.7050852 C48.2801888,29.8591511 47.6774481,29.9361829 47.0466634,29.9361829 C46.4158787,29.9361829 45.8551896,29.8591511 45.3645793,29.7050852 C44.7618295,30.0272231 43.8507097,30.2513156 42.6311927,30.3773696 C42.3171175,30.4058986 42.0270962,30.4351449 41.7611285,30.4651085 Z M31.9394457,38.0456136 C31.8973934,37.5273918 31.8062814,36.9461517 31.6661071,36.3018759 C31.5259327,35.7416361 31.392769,35.1814047 31.2666121,34.6211649 C30.846089,35.7836625 30.4816411,36.9461427 30.1732574,38.1086403 C30.3975364,38.0666223 30.98626,38.0456136 31.9394457,38.0456136 Z" id="react" fill="#FFFFFF" transform="translate(32.002524, 37.791537) rotate(-20.000000) translate(-32.002524, -37.791537) "></path>
                    <g id="react-logo-official" transform="translate(39.063058, 2.700000)">
                        <ellipse id="Oval" fill="#00D8FF" cx="4.82202332" cy="4.31449331" rx="0.892262197" ry="0.89102568"></ellipse>
                        <path d="M4.82202332,2.50285181 C6.0200063,2.50285181 7.13290184,2.67451372 7.97201995,2.96299099 C8.98303819,3.31055974 9.60465327,3.83742772 9.60465327,4.31449331 C9.60465327,4.81164682 8.945848,5.37133747 7.8601648,5.73055757 C7.03933054,6.00214394 5.95923209,6.14389601 4.82202332,6.14389601 C3.65609041,6.14389601 2.55201666,6.01082916 1.7221294,5.72755593 C0.671946733,5.36909956 0.0393933606,4.80214458 0.0393933606,4.31449331 C0.0393933606,3.84129966 0.632906816,3.31851675 1.62971418,2.97146308 C2.47196259,2.67824357 3.61233725,2.50285181 4.82202332,2.50285181 L4.82202332,2.50285181 Z" id="Shape" stroke="#00D8FF" stroke-width="0.5"></path>
                        <path d="M3.24276529,3.41389435 C3.841241,2.37756437 4.54612938,1.50058779 5.21557058,0.918802209 C6.02215839,0.217839037 6.78974186,-0.0566956958 7.20358276,0.181623968 C7.63485379,0.429978705 7.79126246,1.27951424 7.5604912,2.39814959 C7.38601212,3.24390199 6.96939662,4.24907885 6.40128134,5.23285347 C5.81881289,6.24147599 5.15182613,7.13008615 4.49149128,7.70649009 C3.65589477,8.43590669 2.84807974,8.69985575 2.42504355,8.45624325 C2.01456417,8.2198418 1.85756856,7.44525849 2.05449337,6.40956791 C2.2208799,5.53447402 2.63843805,4.46036598 3.24276529,3.41389435 L3.24276529,3.41389435 Z" id="Shape" stroke="#00D8FF" stroke-width="0.5"></path>
                        <path d="M3.24427709,5.23548212 C2.64407616,4.20014676 2.23526864,3.15232529 2.06486252,2.28259528 C1.85954279,1.23470276 2.00471081,0.433495421 2.41816043,0.19448307 C2.8490046,-0.0545998753 3.6641474,0.234339183 4.51937948,0.992671004 C5.16600145,1.56600226 5.8299824,2.42843242 6.39975176,3.4112657 C6.98390986,4.41891136 7.42174387,5.43975358 7.59204328,6.29891569 C7.80755429,7.38613148 7.63311078,8.21684016 7.21048367,8.4611631 C6.80039557,8.69823948 6.04997544,8.44723833 5.24979054,7.75961381 C4.57369743,7.17862749 3.85036513,6.28094136 3.24427709,5.23548212 L3.24427709,5.23548212 Z" id="Shape" stroke="#00D8FF" stroke-width="0.5"></path>
                    </g>
                </g>
            </g>
        </g>
    </g>
</svg>